<svg xmlns="http://www.w3.org/2000/svg" width="360" height="270" viewBox="0 0 360 270" role="img" aria-labelledby="t d">
<title id="t">Activity</title>
<desc id="d">Activity: building in private. 3 public contributions in the last 12 months.</desc>
<style>text{font-family:-apple-system, "Segoe UI", Helvetica, Arial, sans-serif}.swp{transform-origin:180px 80px;animation:spin 5.3s linear infinite}.b0{animation:blip 5.3s linear 1.73s infinite backwards}.b1{animation:blip 5.3s linear 4.89s infinite backwards}.b2{animation:blip 5.3s linear 5.20s infinite backwards}.scan{animation:pscan 11.9s cubic-bezier(.45,0,.3,1) 1s infinite}.led{animation:led 2.3s ease-in-out infinite}.blr{transform-origin:19px 184px;animation:type 1.14s steps(19,end) 1.00s backwards}.cur{animation:blink 1.1s steps(1,end) infinite}.panel{fill:#F6F8FA;stroke:#D8DEE4}.ring{fill:none;stroke:#C4CCD5}.beam{stroke:#B5611C;stroke-width:1.5}.blip{fill:#B5611C}.led{fill:#B5611C}.head{fill:#59636E}.big{fill:#1F2328}.cur{fill:#B5611C}.cap{fill:#59636E}@keyframes spin{from{transform:rotate(0)}to{transform:rotate(-360deg)}}@keyframes blip{0%{opacity:1}35%{opacity:.35}100%{opacity:.35}}@keyframes pscan{0%{transform:translateX(0)}35%,100%{transform:translateX(440px)}}@keyframes led{0%,100%{opacity:.35}50%{opacity:1}}@keyframes type{from{transform:scaleX(0)}}@keyframes blink{50%{opacity:0}}
@media (prefers-reduced-motion: reduce){*{animation:none!important}}</style>
<defs><linearGradient id="wg" x1="0" y1="0" x2="0" y2="1"><stop offset="0" stop-color="#B5611C" stop-opacity=".45"/><stop offset="1" stop-color="#B5611C" stop-opacity="0"/></linearGradient><linearGradient id="scg" x1="0" x2="1"><stop offset="0" stop-color="#1F2328" stop-opacity="0"/><stop offset="1" stop-color="#1F2328" stop-opacity=".06"/></linearGradient><clipPath id="blc"><rect class="blr" x="19" y="164.1" width="220.6" height="27.6"/></clipPath><path id="g0" d="m1.4 0v-11.7h3.8q1.1 0 1.9.5t1.3 1.2.4 1.8-.4 1.8-1.3 1.2q-.8.5-1.9.5h-2.2v4.7zm1.6-6.1h2.2q.9 0 1.5-.6t.5-1.5-.5-1.5q-.6-.6-1.5-.6h-2.2z"/><path id="g1" d="m4.8.2q-1.6 0-2.5-1t-.9-2.4v-8.5h1.6v8.5q0 .9.4 1.4t1.4.6 1.4-.6q.5-.5.5-1.4v-8.5h1.5v8.5q0 1.6-.8 2.5t-2.6.9z"/><path id="g2" d="m1.4 0v-11.7h3.4q1.6 0 2.6.8t.9 2.2q0 1-.6 1.7t-1.4.8v.1q.6.1 1.1.5t.9 1 .3 1.3q0 1.5-1 2.4t-2.6.9zm1.6-6.8h1.8q.9 0 1.4-.4t.5-1.3-.5-1.3-1.4-.5h-1.8zm0 5.4h1.9q1 0 1.5-.5t.6-1.4-.6-1.5q-.5-.6-1.5-.6h-1.9z"/><path id="g3" d="m2 0v-11.7h1.6v10.3h5.2v1.4z"/><path id="g4" d="m1.6 0v-1.4h2.4v-8.8h-2.4v-1.5h6.4v1.5h-2.4v8.8h2.4v1.4z"/><path id="g5" d="m4.9.2q-1.6 0-2.5-.9t-1-2.5v-5.3q0-1.5 1-2.4t2.5-.9 2.6.9q.9.9.9 2.4h-1.6q0-.9-.5-1.4t-1.4-.5-1.4.5-.5 1.4v5.3q0 .9.5 1.4t1.4.6 1.4-.6q.5-.5.5-1.4h1.6q0 1.5-.9 2.4t-2.6 1z"/><path id="g7" d="m.7 0 3.1-11.7h2.1l3 11.7h-1.7l-.7-3h-3.4l-.7 3zm2.7-4.4h2.8l-.8-3.4q-.3-1-.4-1.7t-.2-.9q0 .3-.2.9t-.3 1.6z"/><path id="g8" d="m4 0v-10.2h-3.2v-1.5h8v1.5h-3.2v10.2z"/><path id="g9" d="m3.7 0-3-11.7h1.7l1.9 7.9q.2.7.3 1.4t.2 1.1q.1-.4.2-1.1t.4-1.4l1.8-7.9h1.7l-3 11.7z"/><path id="g10" d="m4 0v-4.3l-3.5-7.4h1.7l2.2 4.6q.1.4.3.8t.1.5q.1-.2.2-.5t.3-.8l2.2-4.6h1.6l-3.5 7.4v4.3z"/><path id="g11" d="m5.4.2q-1 0-1.6-.5t-.8-1.4v1.7h-1.6v-11.7h1.6v2.5l0 2.1q.1-.9.8-1.4t1.6-.5q1.3 0 2.1.9t.8 2.4v2.6q0 1.5-.8 2.4t-2.1.9zm-.6-1.4q.9 0 1.4-.5t.5-1.5v-2.4q0-1.1-.5-1.5t-1.4-.5-1.3.5-.5 1.5v2.4q0 .9.5 1.5t1.3.5z"/><path id="g12" d="m4.8.2q-1.6 0-2.5-1t-.9-2.4v-5.6h1.6v5.6q0 .9.4 1.4t1.4.6q.8 0 1.3-.6t.5-1.4v-5.6h1.6v5.6q0 1.5-.9 2.4t-2.5 1z"/><path id="g13" d="m1.3 0v-1.4h3.1v-6h-2.8v-1.4h4.4v7.4h2.9v1.4zm3.8-10.4q-.6 0-.9-.2t-.3-.8.3-.8.9-.3.8.3.3.8-.3.8q-.3.2-.8.2z"/><path id="g14" d="m6.1 0q-1.2 0-1.9-.7t-.7-1.9v-7.6h-3v-1.5h4.6v9.1q0 .5.3.8t.8.4h2.6v1.4z"/><path id="g15" d="m4.2.2q-1.3 0-2.1-.9t-.8-2.4v-2.6q0-1.5.8-2.4t2.1-.9q1 0 1.6.5t.8 1.4l0-2.1v-2.5h1.6v11.7h-1.6v-1.7q-.1.9-.8 1.4t-1.6.5zm.6-1.4q.8 0 1.3-.5t.5-1.5v-2.4q0-.9-.5-1.5t-1.3-.5-1.4.5-.5 1.5v2.4q0 1.1.5 1.5t1.4.5z"/><path id="g16" d="m1.4 0v-8.8h1.6v1.7h0q.1-.9.7-1.4t1.6-.5q1.4 0 2.1.9t.8 2.2v5.9h-1.6v-5.6q0-1-.4-1.5t-1.4-.5q-.8 0-1.3.5t-.5 1.5v5.6z"/><path id="g17" d="m2.5 2.9v-1.4h2.5q.7 0 1.2-.4t.4-1.1v-.8l0-1.5h0q-.1.8-.8 1.3t-1.5.4q-1.4 0-2.2-.9t-.8-2.4v-1.8q0-1.5.8-2.4t2.2-.9q.9 0 1.5.5t.8 1.2h0v-1.5h1.6v8.8q0 1.3-.9 2.1t-2.3.8zm2.3-4.8q.8 0 1.3-.5t.5-1.5v-1.7q0-.9-.5-1.5t-1.3-.5-1.4.5-.5 1.4v1.9q0 .9.5 1.4t1.4.5z"/><path id="g18" d="m1.4 2.9v-11.7h1.6v1.7h0q.1-.9.8-1.4t1.6-.5q1.3 0 2.1.9t.8 2.4v2.5q0 1.6-.8 2.5t-2.1.9q-1 0-1.6-.5t-.8-1.4h0l0 2v2.6zm3.4-4.1q.9 0 1.4-.5t.5-1.5v-2.4q0-1.1-.5-1.5t-1.4-.5-1.3.5-.5 1.5v2.4q0 .9.5 1.5t1.3.5z"/><path id="g19" d="m1.7 0v-8.8h1.6v1.7h0q.1-.9.8-1.4t1.6-.5q1.4 0 2.1.9t.8 2.3v.8h-1.6v-.7q0-1.9-1.8-1.9-.9 0-1.4.5t-.5 1.5v5.6z"/><path id="g20" d="m3.8 0-3-8.8h1.7l1.9 5.8q.1.5.2 1t.2.8q.1-.3.2-.8t.3-1l1.8-5.8h1.7l-3 8.8z"/><path id="g21" d="m4 .2q-1.4 0-2.2-.8t-.8-2 .9-2 2.1-.7h2.6v-.7q0-1.6-1.8-1.6-.8 0-1.3.3t-.5.8h-1.6q.1-1.1 1-1.8t2.4-.7 2.5.8.9 2.2v6h-1.6v-1.6h0q-.1.8-.8 1.3t-1.8.5zm.4-1.4q1 0 1.6-.5t.6-1.3v-1.2h-2.4q-.7 0-1.1.4t-.5 1.1.5 1.1 1.3.4z"/><path id="g22" d="m5.7 0q-1.2 0-1.8-.7t-.7-1.7v-5h-2.5v-1.4h2.5v-2.5h1.6v2.5h3.6v1.4h-3.6v5q0 .4.2.7t.7.3h2.6v1.4z"/><path id="g23" d="m4.8.2q-1.6 0-2.6-1t-.9-2.6v-2q0-1.7.9-2.6t2.6-1q1.1 0 1.8.5t1.3 1.1q.4.8.4 1.8v1.6h-5.5v.8q0 .9.6 1.5t1.4.5 1.3-.3.6-.8h1.5q-.1 1.1-1.1 1.8t-2.3.7zm-2-5.8v.4h4v-.4q0-1-.5-1.5t-1.5-.6-1.5.6q-.5.5-.5 1.5z"/></defs>
<rect class="panel" x=".5" y=".5" width="359" height="269" rx="10"/><circle class="ring" cx="180" cy="80" r="50"/><circle class="ring" cx="180" cy="80" r="33"/><circle class="ring" cx="180" cy="80" r="16.5"/><path class="ring" d="M130 80H230M180 30V130"/><g class="swp"><path d="M180 80L230 80A50 50 0 0 1 219.4 110.8Z" fill="url(#wg)"/><path class="beam" d="M180 80H230"/></g><circle class="blip b0" cx="159.1" cy="40.2" r="3"/><circle class="blip b1" cx="219.8" cy="100.9" r="3"/><circle class="blip b2" cx="224.7" cy="85.4" r="3"/><rect class="scan" x="-80" y="1" width="80" height="268" fill="url(#scg)"/><circle class="led" cx="23.5" cy="146" r="3"/><g class="head"><g transform="translate(34 150) scale(0.75)"><use href="#g0" x="0"/><use href="#g1" x="12.3"/><use href="#g2" x="24.5"/><use href="#g3" x="36.8"/><use href="#g4" x="49.1"/><use href="#g5" x="61.3"/><use href="#g7" x="85.9"/><use href="#g5" x="98.1"/><use href="#g8" x="110.4"/><use href="#g4" x="122.7"/><use href="#g9" x="134.9"/><use href="#g4" x="147.2"/><use href="#g8" x="159.5"/><use href="#g10" x="171.7"/></g></g><g class="big" clip-path="url(#blc)"><g transform="translate(20 184) scale(1.188)"><use href="#g11" x="0"/><use href="#g12" x="9.6"/><use href="#g13" x="19.2"/><use href="#g14" x="28.8"/><use href="#g15" x="38.4"/><use href="#g13" x="48"/><use href="#g16" x="57.6"/><use href="#g17" x="67.2"/><use href="#g13" x="86.4"/><use href="#g16" x="96"/><use href="#g18" x="115.2"/><use href="#g19" x="124.8"/><use href="#g13" x="134.4"/><use href="#g20" x="144"/><use href="#g21" x="153.6"/><use href="#g22" x="163.2"/><use href="#g23" x="172.8"/></g></g><rect class="cur" x="239.6" y="168.8" width="10.4" height="19.4"/><text class="cap" x="20" y="216" font-size="15">3 public contributions in the last 12 months</text>
</svg>
