<svg xmlns="http://www.w3.org/2000/svg" width="360" height="550" viewBox="0 0 360 550" role="img" aria-labelledby="t d">
<title id="t">Stack</title>
<desc id="d">Stack: AI engineering: Claude Code, Google Antigravity; Data: Supabase, Postgres, Google Cloud Storage; Interactive web: GSAP + ScrollTrigger, WebGL2; Delivery: GitHub, Netlify. Focus: Product engineering, SaaS platforms, Games, Bespoke software.</desc>
<style>text{font-family:-apple-system, "Segoe UI", Helvetica, Arial, sans-serif}.q0{animation:led 3.7s ease-in-out 0.0s infinite}.q1{animation:led 5.9s ease-in-out 0.6s infinite}.q2{animation:led 4.3s ease-in-out 1.2s infinite}.q3{animation:led 7.1s ease-in-out 1.8s infinite}.o0{animation:led 4.7s ease-in-out 1.2s infinite}.o1{animation:led 6.1s ease-in-out 1.8s infinite}.o2{animation:led 3.9s ease-in-out 2.4s infinite}.o3{animation:led 5.5s ease-in-out 3.0s infinite}.z0{offset-path:path('M324 69H338V386H206');animation:sig 3.7s cubic-bezier(.5,0,.5,1) 0.00s infinite}.z1{offset-path:path('M324 151H338V386H206');animation:sig 5.9s cubic-bezier(.5,0,.5,1) 0.45s infinite}.z2{offset-path:path('M324 233H338V386H206');animation:sig 4.3s cubic-bezier(.5,0,.5,1) 0.90s infinite}.z3{offset-path:path('M324 305H338V386H206');animation:sig 7.1s cubic-bezier(.5,0,.5,1) 1.35s infinite}.z4{offset-path:path('M180 412V420H95.5V438');animation:sig 5.3s cubic-bezier(.5,0,.5,1) 1.80s infinite}.z5{offset-path:path('M180 412V420H264.5V438');animation:sig 6.7s cubic-bezier(.5,0,.5,1) 2.25s infinite}.z6{offset-path:path('M180 412V420H95.5V488');animation:sig 4.7s cubic-bezier(.5,0,.5,1) 2.70s infinite}.z7{offset-path:path('M180 412V420H264.5V488');animation:sig 6.1s cubic-bezier(.5,0,.5,1) 3.15s infinite}.hubr{transform-origin:180px 386px;animation:glowb 8.3s ease-in-out infinite}.nodes{animation:fade .8s ease-out .2s backwards}.head{fill:#8B96A5}.blk{fill:#11161D;stroke:#1F2630}.cat{fill:#F2A65A}.tool{fill:#E6EDF3}.out{fill:none;stroke:#2D3542}.otxt{fill:#E6EDF3}.port{fill:#F2A65A}.link{fill:none;stroke:#2D3542}.sig{fill:#F2A65A;opacity:0}.hub{fill:#11161D;stroke:#2D3542}.hubr{fill:none;stroke:#F2A65A;stroke-opacity:.5}.ic{fill:none;stroke:#E6EDF3;stroke-width:1.4;stroke-linecap:round;stroke-linejoin:round}@keyframes led{0%,100%{opacity:.35}50%{opacity:1}}@keyframes sig{0%{offset-distance:0%;opacity:0}10%{opacity:1}45%{offset-distance:100%;opacity:1}50%,100%{offset-distance:100%;opacity:0}}@keyframes glowb{0%,100%{opacity:.55;transform:scale(.94)}50%{opacity:1;transform:scale(1.04)}}@keyframes fade{from{opacity:0}}
@media (prefers-reduced-motion: reduce){*{animation:none!important}}</style>
<defs><path id="g0" d="m4.9.2q-1.8 0-2.8-.9t-1-2.5h1.6q0 .9.6 1.4t1.6.6 1.5-.6q.6-.5.6-1.4 0-.7-.4-1.2t-1-.7l-1.8-.4q-1.1-.4-1.8-1.2t-.6-2q0-.9.4-1.6t1.2-1.1 1.8-.4 1.8.4 1.2 1q.4.8.4 1.7h-1.6q0-.8-.5-1.3t-1.3-.4-1.4.4q-.5.5-.5 1.3 0 .6.3 1t1 .6l1.8.5q1.2.3 1.8 1.2t.7 2.2q0 1-.4 1.8t-1.3 1.1q-.8.5-1.9.5z"/><path id="g1" d="m4 0v-10.2h-3.2v-1.5h8v1.5h-3.2v10.2z"/><path id="g2" d="m.7 0 3.1-11.7h2.1l3 11.7h-1.7l-.7-3h-3.4l-.7 3zm2.7-4.4h2.8l-.8-3.4q-.3-1-.4-1.7t-.2-.9q0 .3-.2.9t-.3 1.6z"/><path id="g3" d="m4.9.2q-1.6 0-2.5-.9t-1-2.5v-5.3q0-1.5 1-2.4t2.5-.9 2.6.9q.9.9.9 2.4h-1.6q0-.9-.5-1.4t-1.4-.5-1.4.5-.5 1.4v5.3q0 .9.5 1.4t1.4.6 1.4-.6q.5-.5.5-1.4h1.6q0 1.5-.9 2.4t-2.6 1z"/><path id="g4" d="m1.4 0v-11.7h1.6v5h1.6l2.5-5h1.7l-2.8 5.6 3 6.1h-1.8l-2.6-5.3h-1.6v5.3z"/><path id="g5" d="m1.6 0v-1.4h2.4v-8.8h-2.4v-1.5h6.4v1.5h-2.4v8.8h2.4v1.4z"/><path id="g7" d="m1.6 0v-11.7h6.8v1.4h-5.3v3.5h4.7v1.4h-4.7v4h5.3v1.4z"/><path id="g8" d="m1.4 0v-11.7h2l3.5 9.9q0-.4-.1-1.1t0-1.2q-.1-.7-.1-1.3v-6.3h1.5v11.7h-2l-3.5-9.9q.1.5.1 1.1t0 1.2.1 1.2v6.4z"/><path id="g9" d="m4.9.2q-1.7 0-2.6-.9t-1-2.5v-5.3q0-1.5 1-2.4t2.6-.9 2.5.9 1 2.4h-1.6q0-.9-.5-1.4t-1.4-.5-1.5.5-.5 1.4v5.3q0 .9.5 1.4t1.5.6 1.4-.6q.5-.5.5-1.4v-1.6h-2.3v-1.4h3.9v3q0 1.5-1 2.4t-2.5 1z"/><path id="g10" d="m1.4 0v-11.7h3.6q1.1 0 1.9.4t1.3 1.2.4 1.8q0 1.2-.6 2t-1.6 1.2l2.4 5.1h-1.8l-2.2-4.9h-1.8v4.9zm1.6-6.3h2q.9 0 1.5-.5t.5-1.5-.6-1.4q-.5-.6-1.4-.6h-2z"/><path id="g11" d="m1.4 0v-11.7h3.1q1.2 0 2 .5t1.3 1.2.5 1.9v4.5q0 1.1-.5 1.9t-1.3 1.3-2 .4zm1.6-1.4h1.5q1.1 0 1.6-.6t.6-1.6v-4.5q0-1-.6-1.6t-1.6-.6h-1.5z"/><path id="g12" d="m3.7 0-3-11.7h1.7l1.9 7.9q.2.7.3 1.4t.2 1.1q.1-.4.2-1.1t.4-1.4l1.8-7.9h1.7l-3 11.7z"/><path id="g13" d="m1.6 0-1.3-11.7h1.4l.9 8.5q0 .5.1 1.1t0 1q.1-.4.1-1t.1-1.1l1.1-8.5h1.6l1.1 8.5q0 .5.1 1.1t.1 1q0-.4.1-1t.1-1.1l.8-8.5h1.4l-1.4 11.7h-1.9l-1-8.6q-.1-.6-.1-1.1t-.1-.9q0 .3 0 .9t-.1 1.1l-1.1 8.6z"/><path id="g14" d="m1.4 0v-11.7h3.4q1.6 0 2.6.8t.9 2.2q0 1-.6 1.7t-1.4.8v.1q.6.1 1.1.5t.9 1 .3 1.3q0 1.5-1 2.4t-2.6.9zm1.6-6.8h1.8q.9 0 1.4-.4t.5-1.3-.5-1.3-1.4-.5h-1.8zm0 5.4h1.9q1 0 1.5-.5t.6-1.4-.6-1.5q-.5-.6-1.5-.6h-1.9z"/><path id="g15" d="m2 0v-11.7h1.6v10.3h5.2v1.4z"/><path id="g16" d="m4 0v-4.3l-3.5-7.4h1.7l2.2 4.6q.1.4.3.8t.1.5q.1-.2.2-.5t.3-.8l2.2-4.6h1.6l-3.5 7.4v4.3z"/><path id="g17" d="m1.5 0v-11.7h6.9v1.5h-5.4v3.7h5v1.4h-5v5.1z"/><path id="g18" d="m4.8.2q-1.6 0-2.5-1t-1-2.6v-4.9q0-1.7 1-2.6t2.5-.9 2.5.9 1 2.6v4.9q0 1.7-1 2.6t-2.5 1zm0-1.4q.9 0 1.4-.6t.5-1.4v-5.3q0-.9-.5-1.4t-1.4-.5-1.4.5-.5 1.4v5.3q0 .9.5 1.4t1.4.6z"/><path id="g19" d="m4.8.2q-1.6 0-2.5-1t-.9-2.4v-8.5h1.6v8.5q0 .9.4 1.4t1.4.6 1.4-.6q.5-.5.5-1.4v-8.5h1.5v8.5q0 1.6-.8 2.5t-2.6.9z"/></defs>
<path class="link" d="M324 69H338V386H206"/><path class="link" d="M324 151H338V386H206"/><path class="link" d="M324 233H338V386H206"/><path class="link" d="M324 305H338V386H206"/><path class="link" d="M180 412V420H95.5V438"/><path class="link" d="M180 412V420H264.5V438"/><path class="link" d="M180 412V420H95.5V488"/><path class="link" d="M180 412V420H264.5V488"/><circle class="sig z0" r="2.4"/><circle class="sig z1" r="2.4"/><circle class="sig z2" r="2.4"/><circle class="sig z3" r="2.4"/><circle class="sig z4" r="2.4"/><circle class="sig z5" r="2.4"/><circle class="sig z6" r="2.4"/><circle class="sig z7" r="2.4"/><circle class="hubr" cx="180" cy="386" r="26"/><circle class="hub" cx="180" cy="386" r="20"/><g class="ic" transform="translate(172 378)"><path d="M8 1.8 14.2 5 8 8.2 1.8 5z"/><path d="M1.8 8.2 8 11.4l6.2-3.2M1.8 11.4 8 14.6l6.2-3.2"/></g><g class="nodes"><g class="head"><g transform="translate(16 22) scale(0.75)"><use href="#g0" x="0"/><use href="#g1" x="12.3"/><use href="#g2" x="24.5"/><use href="#g3" x="36.8"/><use href="#g4" x="49.1"/></g></g><rect class="blk" x="16.5" y="38.5" width="303" height="61" rx="8"/><g class="cat"><g transform="translate(30 60) scale(0.75)"><use href="#g2" x="0"/><use href="#g5" x="11.7"/><use href="#g7" x="35.2"/><use href="#g8" x="46.9"/><use href="#g9" x="58.7"/><use href="#g5" x="70.4"/><use href="#g8" x="82.1"/><use href="#g7" x="93.9"/><use href="#g7" x="105.6"/><use href="#g10" x="117.3"/><use href="#g5" x="129.1"/><use href="#g8" x="140.8"/><use href="#g9" x="152.5"/></g></g><text class="tool" x="30" y="82" font-size="14">Claude Code · Google Antigravity</text><circle class="port q0" cx="320" cy="69" r="3.5"/><rect class="blk" x="16.5" y="110.5" width="303" height="81" rx="8"/><g class="cat"><g transform="translate(30 132) scale(0.75)"><use href="#g11" x="0"/><use href="#g2" x="11.7"/><use href="#g1" x="23.5"/><use href="#g2" x="35.2"/></g></g><text class="tool" x="30" y="154" font-size="14">Supabase · Postgres · Google Cloud</text><text class="tool" x="30" y="174" font-size="14">Storage</text><circle class="port q1" cx="320" cy="151" r="3.5"/><rect class="blk" x="16.5" y="202.5" width="303" height="61" rx="8"/><g class="cat"><g transform="translate(30 224) scale(0.75)"><use href="#g5" x="0"/><use href="#g8" x="11.7"/><use href="#g1" x="23.5"/><use href="#g7" x="35.2"/><use href="#g10" x="46.9"/><use href="#g2" x="58.7"/><use href="#g3" x="70.4"/><use href="#g1" x="82.1"/><use href="#g5" x="93.9"/><use href="#g12" x="105.6"/><use href="#g7" x="117.3"/><use href="#g13" x="140.8"/><use href="#g7" x="152.5"/><use href="#g14" x="164.3"/></g></g><text class="tool" x="30" y="246" font-size="14">GSAP + ScrollTrigger · WebGL2</text><circle class="port q2" cx="320" cy="233" r="3.5"/><rect class="blk" x="16.5" y="274.5" width="303" height="61" rx="8"/><g class="cat"><g transform="translate(30 296) scale(0.75)"><use href="#g11" x="0"/><use href="#g7" x="11.7"/><use href="#g15" x="23.5"/><use href="#g5" x="35.2"/><use href="#g12" x="46.9"/><use href="#g7" x="58.7"/><use href="#g10" x="70.4"/><use href="#g16" x="82.1"/></g></g><text class="tool" x="30" y="318" font-size="14">GitHub · Netlify</text><circle class="port q3" cx="320" cy="305" r="3.5"/><g class="head"><g transform="translate(16 426) scale(0.75)"><use href="#g17" x="0"/><use href="#g18" x="12.3"/><use href="#g3" x="24.5"/><use href="#g19" x="36.8"/><use href="#g0" x="49.1"/></g></g><rect class="out" x="16.5" y="442.5" width="158" height="39" rx="19.5"/><text class="otxt" x="95.5" y="467" text-anchor="middle" font-size="14">Product engineering</text><circle class="port o0" cx="95.5" cy="442" r="3"/><rect class="out" x="185.5" y="442.5" width="158" height="39" rx="19.5"/><text class="otxt" x="264.5" y="467" text-anchor="middle" font-size="14">SaaS platforms</text><circle class="port o1" cx="264.5" cy="442" r="3"/><rect class="out" x="16.5" y="492.5" width="158" height="39" rx="19.5"/><text class="otxt" x="95.5" y="517" text-anchor="middle" font-size="14">Games</text><circle class="port o2" cx="95.5" cy="492" r="3"/><rect class="out" x="185.5" y="492.5" width="158" height="39" rx="19.5"/><text class="otxt" x="264.5" y="517" text-anchor="middle" font-size="14">Bespoke software</text><circle class="port o3" cx="264.5" cy="492" r="3"/></g>
</svg>
