<svg xmlns="http://www.w3.org/2000/svg" width="360" height="407" viewBox="0 0 360 407" role="img" aria-labelledby="title desc">
<title id="title">Hunain Ahmed</title>
<desc id="desc">I design and ship software end to end: apps, games, SaaS platforms and bespoke systems for businesses. Product engineering · SaaS platforms · Games · Bespoke software. Precise specs. Rigorous audits. Software that holds up in production. MYSURU, IN · 12.30°N 76.64°E IST (UTC+5:30).</desc>
<style>
.name{fill:#E6EDF3}.sub{fill:#F2A65A}.tag,.meta{fill:#8B96A5}
.on{fill:#F2A65A}.off{fill:#2D3542;fill-opacity:.8}.tick{stroke:#4A5361;fill:none}.rule{stroke:#1F2630}
.rise{animation:rise .9s cubic-bezier(.2,.7,.2,1) backwards}
.r1{animation-delay:.1s}.r2{animation-delay:.25s}.r3{animation-delay:.4s}.r4{animation-delay:.55s}
.dot{transform-box:fill-box;transform-origin:center;animation:dot .5s cubic-bezier(.2,.7,.2,1) backwards}
.d0{animation-delay:0.00s}.d1{animation-delay:0.04s}.d2{animation-delay:0.07s}.d3{animation-delay:0.11s}.d4{animation-delay:0.15s}.d5{animation-delay:0.19s}.d6{animation-delay:0.23s}.d7{animation-delay:0.26s}.d8{animation-delay:0.30s}.d9{animation-delay:0.34s}.d10{animation-delay:0.38s}.d11{animation-delay:0.41s}.d12{animation-delay:0.45s}.d13{animation-delay:0.49s}.d14{animation-delay:0.53s}.d15{animation-delay:0.56s}.d16{animation-delay:0.60s}.d17{animation-delay:0.64s}.d18{animation-delay:0.67s}.d19{animation-delay:0.71s}.d20{animation-delay:0.75s}.d21{animation-delay:0.79s}.d22{animation-delay:0.83s}.d23{animation-delay:0.86s}.d24{animation-delay:0.90s}
.scan{animation:scan 9s cubic-bezier(.45,0,.25,1) 1.6s infinite}
@keyframes rise{from{opacity:0;transform:translateY(6px)}}
@keyframes dot{from{opacity:0;transform:scale(.3)}}
@keyframes scan{0%{transform:translateX(0)}30%,100%{transform:translateX(159px)}}
@media (prefers-reduced-motion: reduce){*{animation:none!important}}
</style>
<defs><pattern id="grid" width="24" height="24" patternUnits="userSpaceOnUse"><circle cx="12" cy="12" r="1" fill="#E6EDF3" fill-opacity=".04"/></pattern><linearGradient id="s1" x1="0" x2="1" y1="0" y2="0"><stop offset="0" stop-color="#E6EDF3" stop-opacity="0"/><stop offset=".5" stop-color="#E6EDF3" stop-opacity=".9"/><stop offset="1" stop-color="#E6EDF3" stop-opacity="0"/></linearGradient><linearGradient id="s2" x1="0" x2="1" y1="0" y2="0"><stop offset="0" stop-color="#F2A65A" stop-opacity="0"/><stop offset=".5" stop-color="#F2A65A" stop-opacity=".55"/><stop offset="1" stop-color="#F2A65A" stop-opacity="0"/></linearGradient><clipPath id="con"><circle cx="22.5" cy="32.5" r="2.5"/><circle cx="30.5" cy="32.5" r="2.5"/><circle cx="62.5" cy="32.5" r="2.5"/><circle cx="70.5" cy="32.5" r="2.5"/><circle cx="94.5" cy="32.5" r="2.5"/><circle cx="102.5" cy="32.5" r="2.5"/><circle cx="110.5" cy="32.5" r="2.5"/><circle cx="118.5" cy="32.5" r="2.5"/><circle cx="126.5" cy="32.5" r="2.5"/><circle cx="22.5" cy="40.5" r="2.5"/><circle cx="30.5" cy="40.5" r="2.5"/><circle cx="62.5" cy="40.5" r="2.5"/><circle cx="70.5" cy="40.5" r="2.5"/><circle cx="86.5" cy="40.5" r="2.5"/><circle cx="94.5" cy="40.5" r="2.5"/><circle cx="126.5" cy="40.5" r="2.5"/><circle cx="134.5" cy="40.5" r="2.5"/><circle cx="22.5" cy="48.5" r="2.5"/><circle cx="30.5" cy="48.5" r="2.5"/><circle cx="62.5" cy="48.5" r="2.5"/><circle cx="70.5" cy="48.5" r="2.5"/><circle cx="86.5" cy="48.5" r="2.5"/><circle cx="94.5" cy="48.5" r="2.5"/><circle cx="126.5" cy="48.5" r="2.5"/><circle cx="134.5" cy="48.5" r="2.5"/><circle cx="22.5" cy="56.5" r="2.5"/><circle cx="30.5" cy="56.5" r="2.5"/><circle cx="62.5" cy="56.5" r="2.5"/><circle cx="70.5" cy="56.5" r="2.5"/><circle cx="86.5" cy="56.5" r="2.5"/><circle cx="94.5" cy="56.5" r="2.5"/><circle cx="126.5" cy="56.5" r="2.5"/><circle cx="134.5" cy="56.5" r="2.5"/><circle cx="22.5" cy="64.5" r="2.5"/><circle cx="30.5" cy="64.5" r="2.5"/><circle cx="62.5" cy="64.5" r="2.5"/><circle cx="70.5" cy="64.5" r="2.5"/><circle cx="86.5" cy="64.5" r="2.5"/><circle cx="94.5" cy="64.5" r="2.5"/><circle cx="126.5" cy="64.5" r="2.5"/><circle cx="134.5" cy="64.5" r="2.5"/><circle cx="22.5" cy="72.5" r="2.5"/><circle cx="30.5" cy="72.5" r="2.5"/><circle cx="38.5" cy="72.5" r="2.5"/><circle cx="46.5" cy="72.5" r="2.5"/><circle cx="54.5" cy="72.5" r="2.5"/><circle cx="62.5" cy="72.5" r="2.5"/><circle cx="70.5" cy="72.5" r="2.5"/><circle cx="86.5" cy="72.5" r="2.5"/><circle cx="94.5" cy="72.5" r="2.5"/><circle cx="102.5" cy="72.5" r="2.5"/><circle cx="110.5" cy="72.5" r="2.5"/><circle cx="118.5" cy="72.5" r="2.5"/><circle cx="126.5" cy="72.5" r="2.5"/><circle cx="134.5" cy="72.5" r="2.5"/><circle cx="22.5" cy="80.5" r="2.5"/><circle cx="30.5" cy="80.5" r="2.5"/><circle cx="62.5" cy="80.5" r="2.5"/><circle cx="70.5" cy="80.5" r="2.5"/><circle cx="86.5" cy="80.5" r="2.5"/><circle cx="94.5" cy="80.5" r="2.5"/><circle cx="126.5" cy="80.5" r="2.5"/><circle cx="134.5" cy="80.5" r="2.5"/><circle cx="22.5" cy="88.5" r="2.5"/><circle cx="30.5" cy="88.5" r="2.5"/><circle cx="62.5" cy="88.5" r="2.5"/><circle cx="70.5" cy="88.5" r="2.5"/><circle cx="86.5" cy="88.5" r="2.5"/><circle cx="94.5" cy="88.5" r="2.5"/><circle cx="126.5" cy="88.5" r="2.5"/><circle cx="134.5" cy="88.5" r="2.5"/><circle cx="22.5" cy="96.5" r="2.5"/><circle cx="30.5" cy="96.5" r="2.5"/><circle cx="62.5" cy="96.5" r="2.5"/><circle cx="70.5" cy="96.5" r="2.5"/><circle cx="86.5" cy="96.5" r="2.5"/><circle cx="94.5" cy="96.5" r="2.5"/><circle cx="126.5" cy="96.5" r="2.5"/><circle cx="134.5" cy="96.5" r="2.5"/><circle cx="22.5" cy="104.5" r="2.5"/><circle cx="30.5" cy="104.5" r="2.5"/><circle cx="62.5" cy="104.5" r="2.5"/><circle cx="70.5" cy="104.5" r="2.5"/><circle cx="86.5" cy="104.5" r="2.5"/><circle cx="94.5" cy="104.5" r="2.5"/><circle cx="126.5" cy="104.5" r="2.5"/><circle cx="134.5" cy="104.5" r="2.5"/><circle cx="22.5" cy="112.5" r="2.5"/><circle cx="30.5" cy="112.5" r="2.5"/><circle cx="62.5" cy="112.5" r="2.5"/><circle cx="70.5" cy="112.5" r="2.5"/><circle cx="86.5" cy="112.5" r="2.5"/><circle cx="94.5" cy="112.5" r="2.5"/><circle cx="126.5" cy="112.5" r="2.5"/><circle cx="134.5" cy="112.5" r="2.5"/></clipPath><clipPath id="coff"><circle cx="38.5" cy="32.5" r="2.5"/><circle cx="46.5" cy="32.5" r="2.5"/><circle cx="54.5" cy="32.5" r="2.5"/><circle cx="78.5" cy="32.5" r="2.5"/><circle cx="86.5" cy="32.5" r="2.5"/><circle cx="134.5" cy="32.5" r="2.5"/><circle cx="38.5" cy="40.5" r="2.5"/><circle cx="46.5" cy="40.5" r="2.5"/><circle cx="54.5" cy="40.5" r="2.5"/><circle cx="78.5" cy="40.5" r="2.5"/><circle cx="102.5" cy="40.5" r="2.5"/><circle cx="110.5" cy="40.5" r="2.5"/><circle cx="118.5" cy="40.5" r="2.5"/><circle cx="38.5" cy="48.5" r="2.5"/><circle cx="46.5" cy="48.5" r="2.5"/><circle cx="54.5" cy="48.5" r="2.5"/><circle cx="78.5" cy="48.5" r="2.5"/><circle cx="102.5" cy="48.5" r="2.5"/><circle cx="110.5" cy="48.5" r="2.5"/><circle cx="118.5" cy="48.5" r="2.5"/><circle cx="38.5" cy="56.5" r="2.5"/><circle cx="46.5" cy="56.5" r="2.5"/><circle cx="54.5" cy="56.5" r="2.5"/><circle cx="78.5" cy="56.5" r="2.5"/><circle cx="102.5" cy="56.5" r="2.5"/><circle cx="110.5" cy="56.5" r="2.5"/><circle cx="118.5" cy="56.5" r="2.5"/><circle cx="38.5" cy="64.5" r="2.5"/><circle cx="46.5" cy="64.5" r="2.5"/><circle cx="54.5" cy="64.5" r="2.5"/><circle cx="78.5" cy="64.5" r="2.5"/><circle cx="102.5" cy="64.5" r="2.5"/><circle cx="110.5" cy="64.5" r="2.5"/><circle cx="118.5" cy="64.5" r="2.5"/><circle cx="78.5" cy="72.5" r="2.5"/><circle cx="38.5" cy="80.5" r="2.5"/><circle cx="46.5" cy="80.5" r="2.5"/><circle cx="54.5" cy="80.5" r="2.5"/><circle cx="78.5" cy="80.5" r="2.5"/><circle cx="102.5" cy="80.5" r="2.5"/><circle cx="110.5" cy="80.5" r="2.5"/><circle cx="118.5" cy="80.5" r="2.5"/><circle cx="38.5" cy="88.5" r="2.5"/><circle cx="46.5" cy="88.5" r="2.5"/><circle cx="54.5" cy="88.5" r="2.5"/><circle cx="78.5" cy="88.5" r="2.5"/><circle cx="102.5" cy="88.5" r="2.5"/><circle cx="110.5" cy="88.5" r="2.5"/><circle cx="118.5" cy="88.5" r="2.5"/><circle cx="38.5" cy="96.5" r="2.5"/><circle cx="46.5" cy="96.5" r="2.5"/><circle cx="54.5" cy="96.5" r="2.5"/><circle cx="78.5" cy="96.5" r="2.5"/><circle cx="102.5" cy="96.5" r="2.5"/><circle cx="110.5" cy="96.5" r="2.5"/><circle cx="118.5" cy="96.5" r="2.5"/><circle cx="38.5" cy="104.5" r="2.5"/><circle cx="46.5" cy="104.5" r="2.5"/><circle cx="54.5" cy="104.5" r="2.5"/><circle cx="78.5" cy="104.5" r="2.5"/><circle cx="102.5" cy="104.5" r="2.5"/><circle cx="110.5" cy="104.5" r="2.5"/><circle cx="118.5" cy="104.5" r="2.5"/><circle cx="38.5" cy="112.5" r="2.5"/><circle cx="46.5" cy="112.5" r="2.5"/><circle cx="54.5" cy="112.5" r="2.5"/><circle cx="78.5" cy="112.5" r="2.5"/><circle cx="102.5" cy="112.5" r="2.5"/><circle cx="110.5" cy="112.5" r="2.5"/><circle cx="118.5" cy="112.5" r="2.5"/></clipPath><path id="g0" d="M2.2 0V-26.2H6.8V-15.4H18.9V-26.2H23.6V0H18.9V-11.4H6.8V0Z"/><path id="g1" d="M8.6 0.4Q5.7 0.4 3.8 -1.5Q2 -3.4 2 -7V-18.6H6.4V-7.7Q6.4 -5.6 7.4 -4.6Q8.4 -3.5 10.1 -3.5Q11.9 -3.5 13.1 -4.6Q14.2 -5.7 14.2 -8.1V-18.6H18.7V0H14.3V-2.8Q12.3 0.4 8.6 0.4Z"/><path id="g2" d="M6.4 -10.5V0H2V-18.6H6.3V-15.7Q8.3 -18.9 12 -18.9Q14.9 -18.9 16.8 -17.1Q18.7 -15.2 18.7 -11.6V0H14.2V-10.9Q14.2 -12.9 13.2 -14Q12.2 -15 10.5 -15Q8.7 -15 7.6 -14Q6.4 -12.9 6.4 -10.5Z"/><path id="g3" d="M7.6 0.3Q4.9 0.3 3 -1.1Q1.2 -2.5 1.2 -5.3Q1.2 -7.4 2.2 -8.5Q3.3 -9.7 4.9 -10.2Q6.6 -10.7 8.5 -10.9Q11.1 -11.2 12.1 -11.5Q13.1 -11.7 13.1 -12.6V-12.8Q13.1 -14 12.2 -14.7Q11.3 -15.5 9.7 -15.5Q8.1 -15.5 7.1 -14.7Q6.1 -14 6 -12.8H1.7Q1.9 -15.6 4 -17.2Q6.2 -18.9 9.8 -18.9Q13.4 -18.9 15.5 -17.2Q17.5 -15.6 17.5 -12.7V0H13.2V-2.6H13.1Q12.4 -1.4 11.2 -0.5Q9.9 0.3 7.6 0.3ZM8.7 -3Q10.9 -3 12 -4.1Q13.1 -5.3 13.1 -6.9V-8.9Q12.7 -8.6 11.6 -8.4Q10.4 -8.2 9.1 -8Q7.6 -7.8 6.6 -7.2Q5.5 -6.6 5.5 -5.3Q5.5 -4.2 6.4 -3.6Q7.3 -3 8.7 -3Z"/><path id="g4" d="M2 0V-18.6H6.4V0ZM4.2 -21.3Q3 -21.3 2.3 -22.1Q1.5 -22.8 1.5 -23.9Q1.5 -24.9 2.3 -25.6Q3 -26.4 4.2 -26.4Q5.3 -26.4 6.1 -25.6Q6.8 -24.9 6.8 -23.9Q6.8 -22.8 6.1 -22.1Q5.3 -21.3 4.2 -21.3Z"/><path id="g6" d="M0.2 0 9.6 -26.2H15.4L24.7 0H19.6L17.5 -6.3H7.4L5.2 0ZM8.7 -10.1H16.3L15 -13.8Q14.4 -15.6 13.8 -17.5Q13.2 -19.5 12.5 -22Q11.8 -19.5 11.1 -17.5Q10.5 -15.6 9.9 -13.8Z"/><path id="g7" d="M6.4 -10.5V0H2V-26.2H6.4V-15.8Q8.3 -18.9 12 -18.9Q14.9 -18.9 16.8 -17.1Q18.7 -15.2 18.7 -11.6V0H14.2V-10.9Q14.2 -12.9 13.2 -14Q12.2 -15 10.5 -15Q8.7 -15 7.6 -14Q6.4 -12.9 6.4 -10.5Z"/><path id="g8" d="M2 0V-18.6H6.3V-15.3Q7.1 -17.1 8.6 -18Q10.1 -18.9 11.8 -18.9Q13.7 -18.9 15.2 -18Q16.6 -17 17.2 -15.4Q17.9 -17 19.5 -18Q21.1 -18.9 23.1 -18.9Q25.7 -18.9 27.5 -17.2Q29.3 -15.5 29.3 -12.3V0H24.9V-11.6Q24.9 -13.5 23.9 -14.3Q22.9 -15.2 21.4 -15.2Q19.7 -15.2 18.8 -14.1Q17.8 -13.1 17.8 -11.4V0H13.5V-11.8Q13.5 -13.3 12.5 -14.3Q11.6 -15.2 10.1 -15.2Q8.6 -15.2 7.5 -14.1Q6.4 -13.1 6.4 -11.1V0Z"/><path id="g9" d="M10.2 0.4Q7.4 0.4 5.3 -0.8Q3.3 -2.1 2.2 -4.3Q1.1 -6.5 1.1 -9.3Q1.1 -12.1 2.2 -14.3Q3.4 -16.5 5.4 -17.7Q7.4 -19 10 -19Q12.7 -19 14.7 -17.8Q16.7 -16.5 17.8 -14.4Q18.9 -12.2 18.9 -9.3V-8.1H5.4Q5.5 -5.9 6.8 -4.5Q8 -3.1 10.3 -3.1Q11.9 -3.1 13 -3.8Q14.1 -4.5 14.5 -5.7H18.7Q18.3 -3.9 17.1 -2.5Q15.9 -1.1 14.1 -0.4Q12.3 0.4 10.2 0.4ZM5.5 -11.2H14.6Q14.4 -13.2 13.2 -14.3Q12 -15.5 10.1 -15.5Q8.1 -15.5 6.9 -14.3Q5.7 -13.2 5.5 -11.2Z"/><path id="g10" d="M9.1 0.4Q6.7 0.4 4.9 -0.8Q3.1 -2.1 2.1 -4.2Q1.1 -6.4 1.1 -9.3Q1.1 -12.1 2.1 -14.3Q3.1 -16.5 4.9 -17.7Q6.7 -18.9 9.1 -18.9Q10.9 -18.9 12.4 -18.2Q13.8 -17.5 14.7 -15.9H14.7V-26.2H19.2V0H14.8V-2.8H14.8Q13.9 -1.2 12.4 -0.4Q11 0.4 9.1 0.4ZM10.2 -3.3Q12.4 -3.3 13.7 -5Q15 -6.6 15 -9.3Q15 -12 13.7 -13.6Q12.4 -15.3 10.2 -15.3Q8.1 -15.3 6.9 -13.7Q5.6 -12.2 5.6 -9.3Q5.6 -6.4 6.9 -4.9Q8.1 -3.3 10.2 -3.3Z"/><path id="g11" d="M1.2 0V-10.2H4.5Q5.5 -10.2 6.2 -9.8Q7 -9.5 7.3 -8.8Q7.7 -8.1 7.7 -7.2Q7.7 -6.2 7.3 -5.6Q7 -4.9 6.2 -4.5Q5.5 -4.1 4.5 -4.1H2.6V0ZM2.6 -5.4H4.5Q5.4 -5.4 5.8 -5.9Q6.3 -6.4 6.3 -7.2Q6.3 -8 5.8 -8.5Q5.4 -9 4.5 -9H2.6Z"/><path id="g12" d="M1.2 0V-10.2H4.4Q5.3 -10.2 6 -9.8Q6.7 -9.5 7.1 -8.8Q7.5 -8.1 7.5 -7.3Q7.5 -6.2 7 -5.5Q6.5 -4.7 5.6 -4.4L7.7 0H6.1L4.2 -4.3H2.6V0ZM2.6 -5.5H4.4Q5.2 -5.5 5.6 -6Q6.1 -6.5 6.1 -7.2Q6.1 -8 5.6 -8.5Q5.2 -9 4.4 -9H2.6Z"/><path id="g13" d="M4.2 0.1Q2.8 0.1 2 -0.7Q1.2 -1.5 1.2 -3V-7.3Q1.2 -8.7 2 -9.5Q2.8 -10.4 4.2 -10.4Q5.6 -10.4 6.4 -9.6Q7.2 -8.8 7.2 -7.3V-3Q7.2 -1.5 6.4 -0.7Q5.6 0.1 4.2 0.1ZM4.2 -1.1Q5 -1.1 5.4 -1.5Q5.8 -2 5.8 -2.8V-7.4Q5.8 -8.2 5.4 -8.7Q5 -9.1 4.2 -9.1Q3.4 -9.1 3 -8.7Q2.6 -8.2 2.6 -7.4V-2.8Q2.6 -2 3 -1.5Q3.4 -1.1 4.2 -1.1Z"/><path id="g14" d="M1.2 0V-10.2H4Q5 -10.2 5.7 -9.8Q6.4 -9.5 6.8 -8.8Q7.3 -8.1 7.3 -7.1V-3.1Q7.3 -2.2 6.8 -1.5Q6.4 -0.8 5.7 -0.4Q5 0 4 0ZM2.6 -1.2H4Q4.9 -1.2 5.4 -1.7Q5.9 -2.2 5.9 -3.1V-7.1Q5.9 -8 5.4 -8.5Q4.9 -9 4 -9H2.6Z"/><path id="g15" d="M4.2 0.1Q2.8 0.1 2 -0.7Q1.2 -1.5 1.2 -2.8V-10.2H2.6V-2.8Q2.6 -2 3 -1.6Q3.4 -1.1 4.2 -1.1Q5 -1.1 5.4 -1.6Q5.8 -2 5.8 -2.8V-10.2H7.2V-2.8Q7.2 -1.4 6.4 -0.7Q5.7 0.1 4.2 0.1Z"/><path id="g16" d="M4.3 0.1Q2.9 0.1 2.1 -0.7Q1.2 -1.4 1.2 -2.8V-7.4Q1.2 -8.8 2.1 -9.6Q2.9 -10.4 4.3 -10.4Q5.7 -10.4 6.5 -9.6Q7.4 -8.8 7.4 -7.4H6Q6 -8.2 5.5 -8.7Q5.1 -9.1 4.3 -9.1Q3.5 -9.1 3.1 -8.7Q2.6 -8.2 2.6 -7.4V-2.8Q2.6 -2 3.1 -1.5Q3.5 -1.1 4.3 -1.1Q5.1 -1.1 5.5 -1.5Q6 -2 6 -2.8H7.4Q7.4 -1.5 6.5 -0.7Q5.7 0.1 4.3 0.1Z"/><path id="g17" d="M3.5 0V-9H0.7V-10.2H7.7V-9H4.9V0Z"/><path id="g19" d="M1.4 0V-10.2H7.3V-9H2.7V-5.9H6.8V-4.7H2.7V-1.2H7.3V0Z"/><path id="g20" d="M1.2 0V-10.2H3L6 -1.6Q6 -2 6 -2.5Q5.9 -3 5.9 -3.6Q5.9 -4.2 5.9 -4.7V-10.2H7.2V0H5.4L2.4 -8.6Q2.4 -8.3 2.4 -7.7Q2.5 -7.2 2.5 -6.6Q2.5 -6.1 2.5 -5.6V0Z"/><path id="g21" d="M4.3 0.1Q2.8 0.1 2 -0.7Q1.2 -1.4 1.2 -2.8V-7.4Q1.2 -8.8 2 -9.6Q2.8 -10.4 4.3 -10.4Q5.7 -10.4 6.5 -9.6Q7.3 -8.8 7.3 -7.4H5.9Q5.9 -8.2 5.5 -8.7Q5 -9.1 4.3 -9.1Q3.5 -9.1 3 -8.7Q2.6 -8.2 2.6 -7.4V-2.8Q2.6 -2 3 -1.5Q3.5 -1.1 4.3 -1.1Q5 -1.1 5.5 -1.5Q5.9 -2 5.9 -2.8V-4.2H3.9V-5.4H7.3V-2.8Q7.3 -1.5 6.5 -0.7Q5.7 0.1 4.3 0.1Z"/><path id="g22" d="M1.4 0V-1.3H3.5V-9H1.4V-10.2H7V-9H4.9V-1.3H7V0Z"/><path id="g23" d="M4.3 0.1Q2.7 0.1 1.8 -0.7Q1 -1.4 1 -2.8H2.3Q2.3 -2 2.9 -1.6Q3.4 -1.1 4.3 -1.1Q5.1 -1.1 5.6 -1.6Q6.1 -2 6.1 -2.8Q6.1 -3.4 5.8 -3.8Q5.4 -4.3 4.9 -4.4L3.3 -4.8Q2.4 -5.1 1.8 -5.9Q1.2 -6.6 1.2 -7.6Q1.2 -8.4 1.6 -9.1Q1.9 -9.7 2.6 -10Q3.3 -10.4 4.2 -10.4Q5.1 -10.4 5.7 -10Q6.4 -9.7 6.8 -9.1Q7.2 -8.4 7.2 -7.6H5.8Q5.8 -8.3 5.3 -8.7Q4.9 -9.1 4.2 -9.1Q3.4 -9.1 3 -8.7Q2.5 -8.3 2.5 -7.6Q2.5 -7.1 2.8 -6.7Q3.1 -6.3 3.7 -6.2L5.2 -5.8Q6.3 -5.5 6.9 -4.7Q7.4 -3.9 7.4 -2.8Q7.4 -1.9 7.1 -1.3Q6.7 -0.6 5.9 -0.2Q5.2 0.1 4.3 0.1Z"/><path id="g24" d="M0.6 0 3.3 -10.2H5.1L7.8 0H6.3L5.7 -2.7H2.7L2.1 0ZM3 -3.8H5.4L4.7 -6.9Q4.5 -7.7 4.4 -8.3Q4.2 -8.9 4.2 -9.1Q4.2 -8.9 4 -8.3Q3.9 -7.7 3.7 -6.9Z"/><path id="g25" d="M1.8 0V-10.2H3.2V-1.3H7.7V0Z"/><path id="g26" d="M1.3 0V-10.2H7.4V-8.9H2.6V-5.7H7V-4.5H2.7V0Z"/><path id="g27" d="M1 0V-10.2H2.9L4.2 -5.8L5.5 -10.2H7.5V0H6.1V-4.7Q6.1 -5.4 6.2 -6.3Q6.2 -7.2 6.2 -8.1Q6.3 -9 6.3 -9.8L4.7 -4.5H3.6L2 -9.6Q2.2 -8.6 2.2 -7.4Q2.3 -6.1 2.3 -4.7V0Z"/><path id="g28" d="M4.2 -3.6Q3.7 -3.6 3.3 -3.9Q3 -4.3 3 -4.8Q3 -5.3 3.3 -5.6Q3.7 -6 4.2 -6Q4.7 -6 5.1 -5.6Q5.4 -5.3 5.4 -4.8Q5.4 -4.3 5.1 -3.9Q4.7 -3.6 4.2 -3.6Z"/><path id="g29" d="M1.2 0V-10.2H4.2Q5.6 -10.2 6.4 -9.5Q7.3 -8.8 7.3 -7.6Q7.3 -6.8 6.8 -6.2Q6.3 -5.5 5.5 -5.4V-5.3Q6.1 -5.3 6.5 -4.9Q7 -4.6 7.2 -4Q7.5 -3.5 7.5 -2.9Q7.5 -1.5 6.7 -0.8Q5.8 0 4.4 0ZM2.6 -5.9H4.2Q5 -5.9 5.4 -6.3Q5.9 -6.7 5.9 -7.4Q5.9 -8.2 5.4 -8.6Q5 -9 4.2 -9H2.6ZM2.6 -1.2H4.3Q5.1 -1.2 5.6 -1.7Q6.1 -2.1 6.1 -2.9Q6.1 -3.7 5.6 -4.2Q5.1 -4.7 4.3 -4.7H2.6Z"/><path id="g30" d="M1.2 0V-10.2H2.6V-5.9H4L6.2 -10.2H7.7L5.3 -5.3L7.9 0H6.3L4 -4.7H2.6V0Z"/><path id="g31" d="M1.4 0 0.3 -10.2H1.5L2.3 -2.8Q2.3 -2.3 2.3 -1.8Q2.4 -1.3 2.4 -1Q2.4 -1.3 2.5 -1.8Q2.5 -2.3 2.6 -2.8L3.5 -10.2H4.9L5.8 -2.8Q5.9 -2.3 5.9 -1.8Q6 -1.3 6 -1Q6 -1.3 6.1 -1.8Q6.1 -2.3 6.2 -2.8L6.9 -10.2H8.1L6.9 0H5.2L4.4 -7.6Q4.3 -8 4.3 -8.5Q4.2 -9 4.2 -9.3Q4.2 -9 4.2 -8.5Q4.1 -8 4.1 -7.6L3.1 0Z"/><path id="g32" d="M1.4 0V-11.6H5.4Q6.8 -11.6 7.6 -11.1Q8.5 -10.6 8.9 -9.8Q9.4 -9 9.4 -7.9Q9.4 -6.9 8.9 -6.1Q8.5 -5.2 7.6 -4.7Q6.8 -4.2 5.4 -4.2H2.9V0ZM2.9 -5.5H5.3Q6.7 -5.5 7.3 -6.2Q7.9 -6.9 7.9 -7.9Q7.9 -9 7.3 -9.7Q6.7 -10.3 5.3 -10.3H2.9Z"/><path id="g33" d="M1.2 0V-8.7H2.6V-7.4H2.7Q2.9 -8.1 3.6 -8.5Q4.2 -8.9 5 -8.9Q5.1 -8.9 5.3 -8.9Q5.5 -8.8 5.7 -8.8V-7.4Q5.6 -7.4 5.4 -7.5Q5.1 -7.5 4.8 -7.5Q3.9 -7.5 3.3 -6.9Q2.6 -6.4 2.6 -5.5V0Z"/><path id="g34" d="M4.9 0.2Q3.6 0.2 2.7 -0.4Q1.8 -0.9 1.3 -1.9Q0.8 -3 0.8 -4.3Q0.8 -5.6 1.3 -6.7Q1.8 -7.7 2.7 -8.3Q3.6 -8.8 4.7 -8.8Q5.4 -8.8 6.1 -8.6Q6.8 -8.4 7.3 -7.9Q7.9 -7.4 8.2 -6.5Q8.5 -5.7 8.5 -4.5V-3.9H2.2Q2.3 -2.5 3 -1.8Q3.8 -1.1 4.9 -1.1Q5.7 -1.1 6.2 -1.4Q6.8 -1.7 7 -2.4L8.4 -2Q8.1 -1 7.2 -0.4Q6.2 0.2 4.9 0.2ZM2.2 -5.1H7.1Q7 -6.2 6.4 -6.9Q5.8 -7.6 4.7 -7.6Q4 -7.6 3.4 -7.2Q2.9 -6.9 2.6 -6.3Q2.3 -5.8 2.2 -5.1Z"/><path id="g35" d="M4.8 0.2Q3.6 0.2 2.7 -0.4Q1.8 -0.9 1.3 -2Q0.8 -3 0.8 -4.3Q0.8 -5.7 1.3 -6.7Q1.8 -7.7 2.7 -8.3Q3.6 -8.8 4.8 -8.8Q6.1 -8.8 7 -8.2Q8 -7.6 8.3 -6.4L7 -6Q6.8 -6.7 6.2 -7.2Q5.6 -7.6 4.8 -7.6Q3.9 -7.6 3.4 -7.1Q2.8 -6.7 2.5 -5.9Q2.2 -5.2 2.2 -4.3Q2.2 -3.5 2.5 -2.7Q2.8 -2 3.4 -1.5Q3.9 -1.1 4.8 -1.1Q5.7 -1.1 6.2 -1.5Q6.8 -2 7 -2.7L8.4 -2.3Q8 -1.1 7 -0.5Q6.1 0.2 4.8 0.2Z"/><path id="g36" d="M1.2 0V-8.7H2.6V0ZM1.9 -10.2Q1.5 -10.2 1.3 -10.4Q1 -10.7 1 -11.1Q1 -11.5 1.3 -11.8Q1.5 -12 1.9 -12Q2.4 -12 2.6 -11.8Q2.9 -11.5 2.9 -11.1Q2.9 -10.7 2.6 -10.4Q2.4 -10.2 1.9 -10.2Z"/><path id="g37" d="M4.2 0.2Q2.9 0.2 2 -0.4Q1.1 -1 0.8 -2.1L2.2 -2.4Q2.4 -1.7 2.9 -1.4Q3.4 -1 4.2 -1Q5.1 -1 5.6 -1.4Q6.2 -1.8 6.2 -2.4Q6.2 -3.3 4.9 -3.6L3.5 -3.9Q1.1 -4.5 1.1 -6.3Q1.1 -7 1.5 -7.6Q2 -8.2 2.7 -8.5Q3.4 -8.8 4.3 -8.8Q5.7 -8.8 6.4 -8.3Q7.2 -7.7 7.5 -6.7L6.2 -6.4Q6 -6.9 5.6 -7.3Q5.2 -7.6 4.4 -7.6Q3.6 -7.6 3.1 -7.3Q2.5 -6.9 2.5 -6.4Q2.5 -5.9 2.9 -5.6Q3.2 -5.3 4 -5.1L5.3 -4.8Q6.5 -4.5 7.1 -3.9Q7.6 -3.4 7.6 -2.5Q7.6 -1.7 7.2 -1.1Q6.8 -0.5 6 -0.2Q5.2 0.2 4.2 0.2Z"/><path id="g39" d="M1.2 3.3V-8.7H2.6V-7.3H2.8Q2.9 -7.6 3.2 -7.9Q3.4 -8.3 3.9 -8.6Q4.4 -8.8 5.3 -8.8Q6.4 -8.8 7.2 -8.3Q8 -7.8 8.5 -6.7Q9 -5.7 9 -4.3Q9 -3 8.5 -1.9Q8 -0.9 7.2 -0.4Q6.4 0.2 5.3 0.2Q4.5 0.2 4 -0.1Q3.4 -0.4 3.2 -0.7Q2.9 -1.1 2.8 -1.4H2.6V3.3ZM5.1 -1.1Q5.9 -1.1 6.4 -1.5Q7 -2 7.3 -2.7Q7.6 -3.4 7.6 -4.4Q7.6 -5.3 7.3 -6Q7 -6.7 6.5 -7.2Q5.9 -7.6 5.1 -7.6Q3.9 -7.6 3.2 -6.7Q2.6 -5.8 2.6 -4.4Q2.6 -2.9 3.3 -2Q3.9 -1.1 5.1 -1.1Z"/><path id="g40" d="M2.3 0.1Q1.9 0.1 1.6 -0.2Q1.2 -0.5 1.2 -1Q1.2 -1.4 1.6 -1.7Q1.9 -2 2.3 -2Q2.7 -2 3.1 -1.7Q3.4 -1.4 3.4 -1Q3.4 -0.5 3.1 -0.2Q2.7 0.1 2.3 0.1Z"/><path id="g41" d="M1.4 0V-11.6H5.4Q6.8 -11.6 7.6 -11.2Q8.5 -10.7 8.9 -9.9Q9.4 -9.1 9.4 -8Q9.4 -6.9 8.8 -6Q8.3 -5.2 7.2 -4.8L9.8 0H8.1L5.7 -4.5Q5.5 -4.5 5.4 -4.5H2.9V0ZM2.9 -5.8H5.3Q6.7 -5.8 7.3 -6.4Q7.9 -7 7.9 -8Q7.9 -9.1 7.3 -9.7Q6.7 -10.3 5.3 -10.3H2.9Z"/><path id="g42" d="M4.8 3.5Q3.3 3.5 2.5 2.9Q1.6 2.4 1.2 1.7L2.3 0.9Q2.5 1.2 2.8 1.5Q3.1 1.8 3.5 2Q4 2.2 4.8 2.2Q5.8 2.2 6.5 1.7Q7.2 1.2 7.2 0.1V-1.6H7Q6.9 -1.4 6.6 -1Q6.4 -0.7 5.8 -0.4Q5.3 -0.1 4.5 -0.1Q3.5 -0.1 2.6 -0.6Q1.8 -1.1 1.3 -2.1Q0.8 -3 0.8 -4.4Q0.8 -5.8 1.3 -6.8Q1.8 -7.8 2.6 -8.3Q3.4 -8.8 4.5 -8.8Q5.4 -8.8 5.9 -8.6Q6.4 -8.3 6.7 -7.9Q6.9 -7.6 7.1 -7.3H7.2V-8.7H8.6V0.2Q8.6 1.4 8.1 2.1Q7.6 2.8 6.7 3.1Q5.8 3.5 4.8 3.5ZM4.7 -1.4Q5.9 -1.4 6.6 -2.2Q7.2 -3 7.2 -4.4Q7.2 -5.8 6.6 -6.7Q5.9 -7.6 4.7 -7.6Q3.9 -7.6 3.4 -7.2Q2.8 -6.7 2.5 -6Q2.2 -5.3 2.2 -4.4Q2.2 -3.1 2.9 -2.2Q3.5 -1.4 4.7 -1.4Z"/><path id="g43" d="M4.8 0.2Q3.6 0.2 2.7 -0.4Q1.8 -0.9 1.3 -2Q0.8 -3 0.8 -4.3Q0.8 -5.7 1.3 -6.7Q1.8 -7.7 2.7 -8.3Q3.6 -8.8 4.8 -8.8Q6 -8.8 6.9 -8.3Q7.8 -7.7 8.3 -6.7Q8.8 -5.7 8.8 -4.3Q8.8 -3 8.3 -2Q7.8 -0.9 6.9 -0.4Q6 0.2 4.8 0.2ZM4.8 -1.1Q5.7 -1.1 6.2 -1.5Q6.8 -2 7.1 -2.7Q7.4 -3.5 7.4 -4.3Q7.4 -5.2 7.1 -5.9Q6.8 -6.7 6.2 -7.1Q5.7 -7.6 4.8 -7.6Q3.9 -7.6 3.4 -7.1Q2.8 -6.7 2.5 -5.9Q2.2 -5.2 2.2 -4.3Q2.2 -3.5 2.5 -2.7Q2.8 -2 3.4 -1.5Q3.9 -1.1 4.8 -1.1Z"/><path id="g44" d="M4.2 0.1Q2.9 0.1 2.1 -0.7Q1.2 -1.5 1.2 -3.2V-8.7H2.6V-3.3Q2.6 -2.3 3.2 -1.7Q3.7 -1.2 4.6 -1.2Q5.6 -1.2 6.2 -1.8Q6.8 -2.4 6.8 -3.5V-8.7H8.2V0H6.9V-1.6Q6.4 -0.7 5.7 -0.3Q5.1 0.1 4.2 0.1Z"/><path id="g45" d="M3.7 0.2Q2.9 0.2 2.2 -0.1Q1.5 -0.4 1.1 -1Q0.7 -1.6 0.7 -2.5Q0.7 -3.2 1 -3.7Q1.3 -4.2 1.8 -4.4Q2.3 -4.7 2.9 -4.8Q3.5 -5 4.1 -5.1Q4.9 -5.2 5.4 -5.2Q5.9 -5.3 6.1 -5.4Q6.3 -5.5 6.3 -5.9V-5.9Q6.3 -6.7 5.9 -7.2Q5.4 -7.6 4.5 -7.6Q3.6 -7.6 3 -7.2Q2.5 -6.8 2.3 -6.3L1 -6.8Q1.3 -7.6 1.9 -8Q2.4 -8.5 3.1 -8.7Q3.8 -8.8 4.5 -8.8Q4.9 -8.8 5.5 -8.7Q6 -8.6 6.6 -8.3Q7.1 -8 7.4 -7.4Q7.8 -6.8 7.8 -5.8V0H6.4V-1.2H6.3Q6.1 -0.9 5.8 -0.6Q5.5 -0.2 4.9 0Q4.4 0.2 3.7 0.2ZM3.9 -1Q4.7 -1 5.2 -1.3Q5.8 -1.6 6.1 -2.1Q6.3 -2.6 6.3 -3.2V-4.4Q6.3 -4.3 6 -4.2Q5.7 -4.1 5.3 -4Q4.9 -4 4.6 -3.9Q4.2 -3.9 4 -3.9Q3.5 -3.8 3.1 -3.7Q2.6 -3.5 2.4 -3.2Q2.1 -2.9 2.1 -2.4Q2.1 -1.7 2.6 -1.4Q3.1 -1 3.9 -1Z"/><path id="g46" d="M4.5 0.2Q3.4 0.2 2.6 -0.4Q1.8 -0.9 1.3 -1.9Q0.8 -3 0.8 -4.3Q0.8 -5.7 1.3 -6.7Q1.8 -7.8 2.6 -8.3Q3.4 -8.8 4.5 -8.8Q5.4 -8.8 5.9 -8.6Q6.4 -8.3 6.6 -7.9Q6.9 -7.6 7 -7.3H7.2V-11.6H8.6V0H7.2V-1.4H7Q6.9 -1.1 6.6 -0.7Q6.4 -0.4 5.8 -0.1Q5.3 0.2 4.5 0.2ZM4.7 -1.1Q5.9 -1.1 6.5 -2Q7.2 -2.9 7.2 -4.4Q7.2 -5.8 6.6 -6.7Q5.9 -7.6 4.7 -7.6Q3.9 -7.6 3.3 -7.2Q2.8 -6.7 2.5 -6Q2.2 -5.3 2.2 -4.4Q2.2 -3.4 2.5 -2.7Q2.8 -2 3.4 -1.5Q3.9 -1.1 4.7 -1.1Z"/><path id="g47" d="M4.7 -8.7V-7.5H2.9V-2.3Q2.9 -1.7 3.1 -1.4Q3.4 -1.1 3.9 -1.1Q4 -1.1 4.2 -1.2Q4.5 -1.2 4.6 -1.2L4.9 0Q4.7 0 4.4 0.1Q4.1 0.1 3.9 0.1Q2.7 0.1 2.1 -0.5Q1.5 -1.1 1.5 -2.2V-7.5H0.2V-8.7H1.5V-10.8H2.9V-8.7Z"/><path id="g48" d="M5.1 0.2Q3.2 0.2 2.1 -0.7Q1 -1.6 0.9 -3H2.4Q2.5 -2.4 2.9 -2Q3.3 -1.5 3.9 -1.3Q4.5 -1.1 5.1 -1.1Q5.9 -1.1 6.6 -1.4Q7.2 -1.6 7.5 -2.1Q7.9 -2.6 7.9 -3.2Q7.9 -3.8 7.6 -4.1Q7.3 -4.5 6.8 -4.7Q6.2 -4.9 5.6 -5.1L4.2 -5.5Q2.8 -5.9 2 -6.6Q1.2 -7.4 1.2 -8.5Q1.2 -9.5 1.8 -10.2Q2.3 -11 3.2 -11.4Q4.1 -11.8 5.2 -11.8Q6.4 -11.8 7.3 -11.4Q8.1 -11 8.7 -10.3Q9.2 -9.6 9.2 -8.7H7.8Q7.6 -9.6 6.9 -10Q6.2 -10.5 5.2 -10.5Q4.1 -10.5 3.4 -9.9Q2.7 -9.4 2.7 -8.6Q2.7 -8 3.1 -7.6Q3.4 -7.2 4 -7Q4.5 -6.8 4.9 -6.7L6.1 -6.4Q6.5 -6.3 7.1 -6Q7.7 -5.8 8.2 -5.5Q8.7 -5.1 9 -4.5Q9.4 -4 9.4 -3.2Q9.4 -2.2 8.9 -1.5Q8.4 -0.7 7.4 -0.2Q6.5 0.2 5.1 0.2Z"/><path id="g49" d="M5.3 -8.7V-7.5H3.3V0H1.9V-7.5H0.2V-8.7H1.9V-9.9Q1.9 -10.7 2.2 -11.2Q2.6 -11.7 3.2 -11.9Q3.7 -12.2 4.4 -12.2Q4.9 -12.2 5.2 -12.1Q5.5 -12 5.7 -12L5.3 -10.8Q5.2 -10.8 5 -10.8Q4.8 -10.9 4.5 -10.9Q3.9 -10.9 3.6 -10.6Q3.3 -10.2 3.3 -9.6V-8.7Z"/><path id="g50" d="M3.2 0 0.5 -8.7H2L3.1 -4.9Q3.3 -4.2 3.5 -3.4Q3.7 -2.5 3.9 -1.5Q4.1 -2.5 4.4 -3.4Q4.6 -4.2 4.8 -4.9L5.8 -8.7H7.3L8.3 -4.9Q8.5 -4.2 8.7 -3.4Q8.9 -2.5 9.1 -1.5Q9.4 -2.5 9.6 -3.4Q9.8 -4.2 10 -4.9L11.1 -8.7H12.5L9.9 0H8.5L7.4 -4Q7.1 -4.7 6.9 -5.5Q6.8 -6.3 6.5 -7.1Q6.4 -6.3 6.1 -5.5Q5.9 -4.7 5.7 -4L4.6 0Z"/><path id="g51" d="M2.6 -5.2V0H1.2V-11.6H2.6V-7.2Q3.1 -8.1 3.7 -8.5Q4.4 -8.8 5.3 -8.8Q6.6 -8.8 7.4 -8Q8.2 -7.2 8.2 -5.5V0H6.8V-5.4Q6.8 -6.4 6.3 -7Q5.8 -7.6 4.8 -7.6Q3.9 -7.6 3.3 -7Q2.6 -6.4 2.6 -5.2Z"/><path id="g52" d="M2.6 -11.6V0H1.2V-11.6Z"/><path id="g53" d="M2.6 -5.2V0H1.2V-8.7H2.6L2.6 -7.1Q3 -8 3.7 -8.4Q4.4 -8.8 5.3 -8.8Q6.6 -8.8 7.4 -8Q8.2 -7.2 8.2 -5.5V0H6.8V-5.4Q6.8 -6.4 6.3 -7Q5.8 -7.6 4.8 -7.6Q3.9 -7.6 3.3 -7Q2.6 -6.4 2.6 -5.2Z"/><path id="g54" d="M0.9 0V-9.5H2.7L3.9 -5.4L5.1 -9.5H6.9V0H5.7V-4.4Q5.7 -5 5.7 -5.9Q5.7 -6.7 5.8 -7.6Q5.8 -8.4 5.9 -9.1L4.4 -4.2H3.3L1.9 -9Q2 -8 2.1 -6.8Q2.1 -5.7 2.1 -4.4V0Z"/><path id="g55" d="M3.3 0V-3.5L0.4 -9.5H1.8L3.5 -5.7Q3.7 -5.4 3.8 -5.1Q3.9 -4.9 3.9 -4.7Q4 -4.9 4 -5.1Q4.1 -5.4 4.3 -5.7L6.1 -9.5H7.4L4.5 -3.5V0Z"/><path id="g56" d="M4 0.1Q2.5 0.1 1.7 -0.6Q0.9 -1.3 0.9 -2.6H2.2Q2.2 -1.9 2.7 -1.4Q3.1 -1 4 -1Q4.7 -1 5.2 -1.4Q5.7 -1.9 5.7 -2.6Q5.7 -3.2 5.4 -3.6Q5.1 -4 4.5 -4.1L3.1 -4.5Q2.2 -4.8 1.6 -5.4Q1.1 -6.1 1.1 -7.1Q1.1 -7.8 1.4 -8.4Q1.8 -9 2.4 -9.3Q3 -9.6 3.9 -9.6Q4.7 -9.6 5.3 -9.3Q6 -9 6.3 -8.4Q6.7 -7.8 6.7 -7.1H5.4Q5.4 -7.7 5 -8.1Q4.5 -8.5 3.9 -8.5Q3.2 -8.5 2.8 -8.1Q2.4 -7.7 2.4 -7.1Q2.4 -6.6 2.6 -6.2Q2.9 -5.9 3.4 -5.7L4.8 -5.4Q5.8 -5.1 6.4 -4.4Q6.9 -3.6 6.9 -2.6Q6.9 -1.8 6.6 -1.2Q6.2 -0.5 5.5 -0.2Q4.8 0.1 4 0.1Z"/><path id="g57" d="M3.9 0.1Q2.6 0.1 1.8 -0.6Q1.1 -1.4 1.1 -2.6V-9.5H2.4V-2.6Q2.4 -1.9 2.8 -1.4Q3.1 -1 3.9 -1Q4.6 -1 5 -1.4Q5.4 -1.9 5.4 -2.6V-9.5H6.7V-2.6Q6.7 -1.3 6 -0.6Q5.3 0.1 3.9 0.1Z"/><path id="g58" d="M1.2 0V-9.5H4.1Q5 -9.5 5.6 -9.1Q6.3 -8.8 6.6 -8.2Q7 -7.6 7 -6.7Q7 -5.8 6.5 -5.1Q6 -4.4 5.2 -4.1L7.1 0H5.7L3.9 -4H2.4V0ZM2.4 -5.1H4.1Q4.8 -5.1 5.2 -5.6Q5.7 -6 5.7 -6.7Q5.7 -7.5 5.2 -7.9Q4.8 -8.3 4.1 -8.3H2.4Z"/><path id="g59" d="M2.7 2.1 3.4 -1.9H4.9L4 2.1Z"/><path id="g61" d="M1.3 0V-1.2H3.2V-8.3H1.3V-9.5H6.5V-8.3H4.5V-1.2H6.5V0Z"/><path id="g62" d="M1.1 0V-9.5H2.8L5.6 -1.5Q5.6 -1.8 5.5 -2.3Q5.5 -2.8 5.5 -3.4Q5.5 -3.9 5.5 -4.4V-9.5H6.7V0H5L2.2 -8Q2.2 -7.7 2.3 -7.2Q2.3 -6.7 2.3 -6.2Q2.3 -5.6 2.3 -5.2V0Z"/><path id="g63" d="M3.9 -3.4Q3.4 -3.4 3.1 -3.7Q2.8 -4 2.8 -4.4Q2.8 -4.9 3.1 -5.2Q3.4 -5.6 3.9 -5.6Q4.4 -5.6 4.7 -5.2Q5 -4.9 5 -4.4Q5 -4 4.7 -3.7Q4.4 -3.4 3.9 -3.4Z"/><path id="g64" d="M1.2 0V-1.2H3.7V-8.3L1.1 -6.4V-7.9L3.3 -9.5H5V-1.2H7.1V0Z"/><path id="g65" d="M1.1 0V-1.2L4.3 -4.6Q4.9 -5.2 5.2 -5.8Q5.5 -6.3 5.5 -6.8Q5.5 -7.6 5 -8Q4.6 -8.5 3.9 -8.5Q3.1 -8.5 2.7 -8Q2.2 -7.6 2.2 -6.8H0.9Q1 -8.1 1.8 -8.9Q2.6 -9.6 3.9 -9.6Q5.2 -9.6 6 -8.9Q6.8 -8.1 6.8 -6.9Q6.8 -6.2 6.4 -5.4Q6 -4.7 5.2 -3.8L2.7 -1.2H6.9V0Z"/><path id="g66" d="M3.9 0.1Q3.4 0.1 3.1 -0.2Q2.8 -0.5 2.8 -0.9Q2.8 -1.4 3.1 -1.7Q3.4 -2.1 3.9 -2.1Q4.4 -2.1 4.7 -1.7Q5 -1.4 5 -0.9Q5 -0.5 4.7 -0.2Q4.4 0.1 3.9 0.1Z"/><path id="g67" d="M3.8 0.1Q2.4 0.1 1.7 -0.6Q0.9 -1.3 0.9 -2.6H2.2Q2.2 -1.9 2.6 -1.4Q3 -1 3.8 -1Q4.5 -1 5 -1.4Q5.4 -1.9 5.4 -2.6V-3.3Q5.4 -4 5 -4.4Q4.5 -4.9 3.8 -4.9H2.7V-6L5 -8.3H1.2V-9.5H6.4V-8.3L4.2 -6Q5.3 -5.9 6 -5.2Q6.7 -4.4 6.7 -3.3V-2.6Q6.7 -1.3 5.9 -0.6Q5.1 0.1 3.8 0.1Z"/><path id="g68" d="M3.9 0.1Q2.6 0.1 1.8 -0.6Q1 -1.4 1 -2.7V-6.8Q1 -8.1 1.8 -8.9Q2.6 -9.6 3.9 -9.6Q5.2 -9.6 6 -8.9Q6.8 -8.1 6.8 -6.8V-2.7Q6.8 -1.8 6.4 -1.2Q6.1 -0.6 5.4 -0.2Q4.8 0.1 3.9 0.1ZM3.9 -1Q4.7 -1 5.1 -1.4Q5.6 -1.9 5.6 -2.7V-6.8Q5.6 -7.6 5.1 -8Q4.7 -8.5 3.9 -8.5Q3.1 -8.5 2.7 -8Q2.2 -7.6 2.2 -6.8V-2.7Q2.2 -1.9 2.7 -1.4Q3.1 -1 3.9 -1ZM3.9 -4Q3.5 -4 3.3 -4.2Q3.1 -4.4 3.1 -4.8Q3.1 -5.1 3.3 -5.3Q3.5 -5.5 3.9 -5.5Q4.3 -5.5 4.5 -5.3Q4.7 -5.1 4.7 -4.8Q4.7 -4.4 4.5 -4.2Q4.3 -4 3.9 -4Z"/><path id="g69" d="M3.9 -5.8Q3 -5.8 2.5 -6.3Q1.9 -6.8 1.9 -7.7Q1.9 -8.6 2.5 -9.1Q3 -9.6 3.9 -9.6Q4.8 -9.6 5.3 -9.1Q5.9 -8.6 5.9 -7.7Q5.9 -6.8 5.3 -6.3Q4.8 -5.8 3.9 -5.8ZM3.9 -6.6Q4.4 -6.6 4.7 -6.9Q5 -7.2 5 -7.7Q5 -8.2 4.7 -8.5Q4.4 -8.8 3.9 -8.8Q3.4 -8.8 3.1 -8.5Q2.8 -8.2 2.8 -7.7Q2.8 -7.2 3.1 -6.9Q3.4 -6.6 3.9 -6.6Z"/><path id="g70" d="M2.4 0 5.8 -8.3H2.3V-6.8H1V-9.5H7.1V-8.3L3.8 0Z"/><path id="g71" d="M3.9 0.1Q3 0.1 2.3 -0.3Q1.6 -0.6 1.2 -1.3Q0.8 -2 0.8 -2.9Q0.8 -3.5 1 -4.2Q1.3 -4.9 1.7 -5.6L3.8 -9.5H5.3L2.9 -5.4L3 -5.4Q3.1 -5.6 3.5 -5.7Q3.8 -5.8 4.2 -5.8Q5.1 -5.8 5.7 -5.5Q6.3 -5.1 6.7 -4.5Q7 -3.8 7 -3Q7 -2 6.6 -1.3Q6.2 -0.7 5.5 -0.3Q4.8 0.1 3.9 0.1ZM3.9 -1Q4.7 -1 5.2 -1.5Q5.7 -2.1 5.7 -2.9Q5.7 -3.8 5.2 -4.3Q4.7 -4.9 3.9 -4.9Q3.1 -4.9 2.6 -4.3Q2.1 -3.8 2.1 -2.9Q2.1 -2.1 2.6 -1.5Q3.1 -1 3.9 -1Z"/><path id="g72" d="M5.1 0V-2H0.9V-4L4.3 -9.5H5.8L2.1 -3.7V-3.2H5.1V-5.5H6.4V0Z"/><path id="g73" d="M1.3 0V-9.5H6.8V-8.3H2.5V-5.5H6.3V-4.4H2.5V-1.2H6.8V0Z"/><path id="g74" d="M3.3 0V-8.3H0.7V-9.5H7.1V-8.3H4.5V0Z"/><path id="g75" d="M6.3 1.6Q4.4 1.1 3.4 -0.2Q2.4 -1.5 2.4 -3.5V-5.8Q2.4 -7.8 3.4 -9.2Q4.4 -10.5 6.3 -10.9V-9.7Q5.5 -9.5 4.9 -9Q4.3 -8.4 4 -7.6Q3.6 -6.8 3.6 -5.8V-3.5Q3.6 -2.5 4 -1.7Q4.3 -0.9 4.9 -0.4Q5.5 0.1 6.3 0.3Z"/><path id="g76" d="M4 0.1Q2.7 0.1 1.9 -0.6Q1.1 -1.3 1.1 -2.6V-6.9Q1.1 -8.2 1.9 -8.9Q2.7 -9.6 4 -9.6Q5.3 -9.6 6.1 -8.9Q6.9 -8.1 6.9 -6.9H5.6Q5.6 -7.6 5.1 -8.1Q4.7 -8.5 4 -8.5Q3.3 -8.5 2.8 -8.1Q2.4 -7.6 2.4 -6.9V-2.6Q2.4 -1.8 2.8 -1.4Q3.3 -1 4 -1Q4.7 -1 5.1 -1.4Q5.6 -1.8 5.6 -2.6H6.9Q6.9 -1.4 6.1 -0.6Q5.3 0.1 4 0.1Z"/><path id="g77" d="M3.3 -1.2V-3.7H0.8V-4.9H3.3V-7.4H4.5V-4.9H7V-3.7H4.5V-1.2Z"/><path id="g78" d="M3.8 0.1Q2.5 0.1 1.7 -0.6Q0.9 -1.3 0.9 -2.6H2.2Q2.2 -1.9 2.7 -1.4Q3.1 -1 3.8 -1Q4.6 -1 5 -1.4Q5.5 -1.9 5.5 -2.6V-3.2Q5.5 -4 5 -4.4Q4.6 -4.8 3.9 -4.8H1.3V-9.5H6.4V-8.3H2.5L2.5 -6H4Q5.3 -6 6 -5.2Q6.7 -4.5 6.7 -3.2V-2.6Q6.7 -1.3 6 -0.6Q5.2 0.1 3.8 0.1Z"/><path id="g79" d="M3.9 -5.3Q3.4 -5.3 3.1 -5.6Q2.8 -5.8 2.8 -6.3Q2.8 -6.7 3.1 -7Q3.4 -7.3 3.9 -7.3Q4.4 -7.3 4.7 -7Q5 -6.7 5 -6.3Q5 -5.8 4.7 -5.6Q4.4 -5.3 3.9 -5.3ZM3.9 0.1Q3.4 0.1 3.1 -0.1Q2.8 -0.4 2.8 -0.9Q2.8 -1.3 3.1 -1.6Q3.4 -1.9 3.9 -1.9Q4.4 -1.9 4.7 -1.6Q5 -1.3 5 -0.9Q5 -0.4 4.7 -0.1Q4.4 0.1 3.9 0.1Z"/><path id="g80" d="M1.5 1.6V0.3Q2.3 0.1 2.9 -0.4Q3.5 -0.9 3.8 -1.7Q4.2 -2.5 4.2 -3.5V-5.8Q4.2 -6.8 3.8 -7.6Q3.5 -8.4 2.9 -9Q2.3 -9.5 1.5 -9.7V-10.9Q3.4 -10.5 4.4 -9.2Q5.5 -7.8 5.5 -5.8V-3.5Q5.5 -1.5 4.4 -0.2Q3.4 1.1 1.5 1.6Z"/></defs>
<rect width="360" height="407" fill="url(#grid)"/><path class="rule" d="M0 .5H360M0 406.5H360"/><g class="name rise r1"><use href="#g0" x="20" y="177"/><use href="#g1" x="45" y="177"/><use href="#g2" x="64.9" y="177"/><use href="#g3" x="84.8" y="177"/><use href="#g4" x="103.6" y="177"/><use href="#g2" x="111.2" y="177"/><use href="#g6" x="138.5" y="177"/><use href="#g7" x="162.8" y="177"/><use href="#g8" x="182.7" y="177"/><use href="#g9" x="213.2" y="177"/><use href="#g10" x="232.4" y="177"/></g><g class="sub rise r2"><use href="#g11" x="20" y="209"/><use href="#g12" x="30" y="209"/><use href="#g13" x="40" y="209"/><use href="#g14" x="50" y="209"/><use href="#g15" x="60" y="209"/><use href="#g16" x="70" y="209"/><use href="#g17" x="80" y="209"/><use href="#g19" x="100" y="209"/><use href="#g20" x="110" y="209"/><use href="#g21" x="120" y="209"/><use href="#g22" x="130" y="209"/><use href="#g20" x="140" y="209"/><use href="#g19" x="150" y="209"/><use href="#g19" x="160" y="209"/><use href="#g12" x="170" y="209"/><use href="#g22" x="180" y="209"/><use href="#g20" x="190" y="209"/><use href="#g21" x="200" y="209"/><use href="#g23" x="20" y="231"/><use href="#g24" x="30" y="231"/><use href="#g24" x="40" y="231"/><use href="#g23" x="50" y="231"/><use href="#g11" x="70" y="231"/><use href="#g25" x="80" y="231"/><use href="#g24" x="90" y="231"/><use href="#g17" x="100" y="231"/><use href="#g26" x="110" y="231"/><use href="#g13" x="120" y="231"/><use href="#g12" x="130" y="231"/><use href="#g27" x="140" y="231"/><use href="#g23" x="150" y="231"/><use href="#g28" x="170" y="231"/><use href="#g21" x="190" y="231"/><use href="#g24" x="200" y="231"/><use href="#g27" x="210" y="231"/><use href="#g19" x="220" y="231"/><use href="#g23" x="230" y="231"/><use href="#g29" x="20" y="253"/><use href="#g19" x="30" y="253"/><use href="#g23" x="40" y="253"/><use href="#g11" x="50" y="253"/><use href="#g13" x="60" y="253"/><use href="#g30" x="70" y="253"/><use href="#g19" x="80" y="253"/><use href="#g23" x="100" y="253"/><use href="#g13" x="110" y="253"/><use href="#g26" x="120" y="253"/><use href="#g17" x="130" y="253"/><use href="#g31" x="140" y="253"/><use href="#g24" x="150" y="253"/><use href="#g12" x="160" y="253"/><use href="#g19" x="170" y="253"/></g><g class="tag rise r3"><use href="#g32" x="20" y="285"/><use href="#g33" x="30.2" y="285"/><use href="#g34" x="36" y="285"/><use href="#g35" x="45.3" y="285"/><use href="#g36" x="54.4" y="285"/><use href="#g37" x="58.3" y="285"/><use href="#g34" x="66.8" y="285"/><use href="#g37" x="80.6" y="285"/><use href="#g39" x="89" y="285"/><use href="#g34" x="98.8" y="285"/><use href="#g35" x="108.2" y="285"/><use href="#g37" x="117.3" y="285"/><use href="#g40" x="125.8" y="285"/><use href="#g41" x="134.9" y="285"/><use href="#g36" x="145.2" y="285"/><use href="#g42" x="149" y="285"/><use href="#g43" x="158.8" y="285"/><use href="#g33" x="168.4" y="285"/><use href="#g43" x="174.2" y="285"/><use href="#g44" x="183.8" y="285"/><use href="#g37" x="193.2" y="285"/><use href="#g45" x="206.2" y="285"/><use href="#g44" x="215.2" y="285"/><use href="#g46" x="224.6" y="285"/><use href="#g36" x="234.4" y="285"/><use href="#g47" x="238.3" y="285"/><use href="#g37" x="243.4" y="285"/><use href="#g40" x="251.8" y="285"/><use href="#g48" x="20" y="309"/><use href="#g43" x="30.3" y="309"/><use href="#g49" x="39.9" y="309"/><use href="#g47" x="45.2" y="309"/><use href="#g50" x="50.7" y="309"/><use href="#g45" x="63.8" y="309"/><use href="#g33" x="72.8" y="309"/><use href="#g34" x="78.5" y="309"/><use href="#g47" x="92.4" y="309"/><use href="#g51" x="97.6" y="309"/><use href="#g45" x="107.1" y="309"/><use href="#g47" x="116" y="309"/><use href="#g51" x="125.8" y="309"/><use href="#g43" x="135.2" y="309"/><use href="#g52" x="144.8" y="309"/><use href="#g46" x="148.7" y="309"/><use href="#g37" x="158.5" y="309"/><use href="#g44" x="171.5" y="309"/><use href="#g39" x="180.9" y="309"/><use href="#g36" x="195.2" y="309"/><use href="#g53" x="199.1" y="309"/><use href="#g39" x="213" y="309"/><use href="#g33" x="222.8" y="309"/><use href="#g43" x="228.6" y="309"/><use href="#g46" x="238.2" y="309"/><use href="#g44" x="248" y="309"/><use href="#g35" x="257.4" y="309"/><use href="#g47" x="266.6" y="309"/><use href="#g36" x="271.8" y="309"/><use href="#g43" x="275.7" y="309"/><use href="#g53" x="285.3" y="309"/><use href="#g40" x="294.7" y="309"/></g><g class="meta rise r4"><use href="#g54" x="20" y="359"/><use href="#g55" x="28.4" y="359"/><use href="#g56" x="36.8" y="359"/><use href="#g57" x="45.2" y="359"/><use href="#g58" x="53.6" y="359"/><use href="#g57" x="62" y="359"/><use href="#g59" x="70.4" y="359"/><use href="#g61" x="87.2" y="359"/><use href="#g62" x="95.6" y="359"/><use href="#g63" x="112.4" y="359"/><use href="#g64" x="129.2" y="359"/><use href="#g65" x="137.6" y="359"/><use href="#g66" x="146" y="359"/><use href="#g67" x="154.4" y="359"/><use href="#g68" x="162.8" y="359"/><use href="#g69" x="171.2" y="359"/><use href="#g62" x="179.6" y="359"/><use href="#g70" x="196.4" y="359"/><use href="#g71" x="204.8" y="359"/><use href="#g66" x="213.2" y="359"/><use href="#g71" x="221.6" y="359"/><use href="#g72" x="230" y="359"/><use href="#g69" x="238.4" y="359"/><use href="#g73" x="246.8" y="359"/><use href="#g61" x="20" y="379"/><use href="#g56" x="28.4" y="379"/><use href="#g74" x="36.8" y="379"/><use href="#g75" x="53.6" y="379"/><use href="#g57" x="62" y="379"/><use href="#g74" x="70.4" y="379"/><use href="#g76" x="78.8" y="379"/><use href="#g77" x="87.2" y="379"/><use href="#g78" x="95.6" y="379"/><use href="#g79" x="104" y="379"/><use href="#g67" x="112.4" y="379"/><use href="#g68" x="120.8" y="379"/><use href="#g80" x="129.2" y="379"/></g><path class="tick" d="M12 29V22H19M138 22H145V29M145 116V123H138M19 123H12V116"/><g class="off"><circle class="dot d2" cx="38.5" cy="32.5" r="2.5"/><circle class="dot d3" cx="46.5" cy="32.5" r="2.5"/><circle class="dot d4" cx="54.5" cy="32.5" r="2.5"/><circle class="dot d7" cx="78.5" cy="32.5" r="2.5"/><circle class="dot d8" cx="86.5" cy="32.5" r="2.5"/><circle class="dot d14" cx="134.5" cy="32.5" r="2.5"/><circle class="dot d3" cx="38.5" cy="40.5" r="2.5"/><circle class="dot d4" cx="46.5" cy="40.5" r="2.5"/><circle class="dot d5" cx="54.5" cy="40.5" r="2.5"/><circle class="dot d8" cx="78.5" cy="40.5" r="2.5"/><circle class="dot d11" cx="102.5" cy="40.5" r="2.5"/><circle class="dot d12" cx="110.5" cy="40.5" r="2.5"/><circle class="dot d13" cx="118.5" cy="40.5" r="2.5"/><circle class="dot d4" cx="38.5" cy="48.5" r="2.5"/><circle class="dot d5" cx="46.5" cy="48.5" r="2.5"/><circle class="dot d6" cx="54.5" cy="48.5" r="2.5"/><circle class="dot d9" cx="78.5" cy="48.5" r="2.5"/><circle class="dot d12" cx="102.5" cy="48.5" r="2.5"/><circle class="dot d13" cx="110.5" cy="48.5" r="2.5"/><circle class="dot d14" cx="118.5" cy="48.5" r="2.5"/><circle class="dot d5" cx="38.5" cy="56.5" r="2.5"/><circle class="dot d6" cx="46.5" cy="56.5" r="2.5"/><circle class="dot d7" cx="54.5" cy="56.5" r="2.5"/><circle class="dot d10" cx="78.5" cy="56.5" r="2.5"/><circle class="dot d13" cx="102.5" cy="56.5" r="2.5"/><circle class="dot d14" cx="110.5" cy="56.5" r="2.5"/><circle class="dot d15" cx="118.5" cy="56.5" r="2.5"/><circle class="dot d6" cx="38.5" cy="64.5" r="2.5"/><circle class="dot d7" cx="46.5" cy="64.5" r="2.5"/><circle class="dot d8" cx="54.5" cy="64.5" r="2.5"/><circle class="dot d11" cx="78.5" cy="64.5" r="2.5"/><circle class="dot d14" cx="102.5" cy="64.5" r="2.5"/><circle class="dot d15" cx="110.5" cy="64.5" r="2.5"/><circle class="dot d16" cx="118.5" cy="64.5" r="2.5"/><circle class="dot d12" cx="78.5" cy="72.5" r="2.5"/><circle class="dot d8" cx="38.5" cy="80.5" r="2.5"/><circle class="dot d9" cx="46.5" cy="80.5" r="2.5"/><circle class="dot d10" cx="54.5" cy="80.5" r="2.5"/><circle class="dot d13" cx="78.5" cy="80.5" r="2.5"/><circle class="dot d16" cx="102.5" cy="80.5" r="2.5"/><circle class="dot d17" cx="110.5" cy="80.5" r="2.5"/><circle class="dot d18" cx="118.5" cy="80.5" r="2.5"/><circle class="dot d9" cx="38.5" cy="88.5" r="2.5"/><circle class="dot d10" cx="46.5" cy="88.5" r="2.5"/><circle class="dot d11" cx="54.5" cy="88.5" r="2.5"/><circle class="dot d14" cx="78.5" cy="88.5" r="2.5"/><circle class="dot d17" cx="102.5" cy="88.5" r="2.5"/><circle class="dot d18" cx="110.5" cy="88.5" r="2.5"/><circle class="dot d19" cx="118.5" cy="88.5" r="2.5"/><circle class="dot d10" cx="38.5" cy="96.5" r="2.5"/><circle class="dot d11" cx="46.5" cy="96.5" r="2.5"/><circle class="dot d12" cx="54.5" cy="96.5" r="2.5"/><circle class="dot d15" cx="78.5" cy="96.5" r="2.5"/><circle class="dot d18" cx="102.5" cy="96.5" r="2.5"/><circle class="dot d19" cx="110.5" cy="96.5" r="2.5"/><circle class="dot d20" cx="118.5" cy="96.5" r="2.5"/><circle class="dot d11" cx="38.5" cy="104.5" r="2.5"/><circle class="dot d12" cx="46.5" cy="104.5" r="2.5"/><circle class="dot d13" cx="54.5" cy="104.5" r="2.5"/><circle class="dot d16" cx="78.5" cy="104.5" r="2.5"/><circle class="dot d19" cx="102.5" cy="104.5" r="2.5"/><circle class="dot d20" cx="110.5" cy="104.5" r="2.5"/><circle class="dot d21" cx="118.5" cy="104.5" r="2.5"/><circle class="dot d12" cx="38.5" cy="112.5" r="2.5"/><circle class="dot d13" cx="46.5" cy="112.5" r="2.5"/><circle class="dot d14" cx="54.5" cy="112.5" r="2.5"/><circle class="dot d17" cx="78.5" cy="112.5" r="2.5"/><circle class="dot d20" cx="102.5" cy="112.5" r="2.5"/><circle class="dot d21" cx="110.5" cy="112.5" r="2.5"/><circle class="dot d22" cx="118.5" cy="112.5" r="2.5"/></g><g class="on"><circle class="dot d0" cx="22.5" cy="32.5" r="2.5"/><circle class="dot d1" cx="30.5" cy="32.5" r="2.5"/><circle class="dot d5" cx="62.5" cy="32.5" r="2.5"/><circle class="dot d6" cx="70.5" cy="32.5" r="2.5"/><circle class="dot d9" cx="94.5" cy="32.5" r="2.5"/><circle class="dot d10" cx="102.5" cy="32.5" r="2.5"/><circle class="dot d11" cx="110.5" cy="32.5" r="2.5"/><circle class="dot d12" cx="118.5" cy="32.5" r="2.5"/><circle class="dot d13" cx="126.5" cy="32.5" r="2.5"/><circle class="dot d1" cx="22.5" cy="40.5" r="2.5"/><circle class="dot d2" cx="30.5" cy="40.5" r="2.5"/><circle class="dot d6" cx="62.5" cy="40.5" r="2.5"/><circle class="dot d7" cx="70.5" cy="40.5" r="2.5"/><circle class="dot d9" cx="86.5" cy="40.5" r="2.5"/><circle class="dot d10" cx="94.5" cy="40.5" r="2.5"/><circle class="dot d14" cx="126.5" cy="40.5" r="2.5"/><circle class="dot d15" cx="134.5" cy="40.5" r="2.5"/><circle class="dot d2" cx="22.5" cy="48.5" r="2.5"/><circle class="dot d3" cx="30.5" cy="48.5" r="2.5"/><circle class="dot d7" cx="62.5" cy="48.5" r="2.5"/><circle class="dot d8" cx="70.5" cy="48.5" r="2.5"/><circle class="dot d10" cx="86.5" cy="48.5" r="2.5"/><circle class="dot d11" cx="94.5" cy="48.5" r="2.5"/><circle class="dot d15" cx="126.5" cy="48.5" r="2.5"/><circle class="dot d16" cx="134.5" cy="48.5" r="2.5"/><circle class="dot d3" cx="22.5" cy="56.5" r="2.5"/><circle class="dot d4" cx="30.5" cy="56.5" r="2.5"/><circle class="dot d8" cx="62.5" cy="56.5" r="2.5"/><circle class="dot d9" cx="70.5" cy="56.5" r="2.5"/><circle class="dot d11" cx="86.5" cy="56.5" r="2.5"/><circle class="dot d12" cx="94.5" cy="56.5" r="2.5"/><circle class="dot d16" cx="126.5" cy="56.5" r="2.5"/><circle class="dot d17" cx="134.5" cy="56.5" r="2.5"/><circle class="dot d4" cx="22.5" cy="64.5" r="2.5"/><circle class="dot d5" cx="30.5" cy="64.5" r="2.5"/><circle class="dot d9" cx="62.5" cy="64.5" r="2.5"/><circle class="dot d10" cx="70.5" cy="64.5" r="2.5"/><circle class="dot d12" cx="86.5" cy="64.5" r="2.5"/><circle class="dot d13" cx="94.5" cy="64.5" r="2.5"/><circle class="dot d17" cx="126.5" cy="64.5" r="2.5"/><circle class="dot d18" cx="134.5" cy="64.5" r="2.5"/><circle class="dot d5" cx="22.5" cy="72.5" r="2.5"/><circle class="dot d6" cx="30.5" cy="72.5" r="2.5"/><circle class="dot d7" cx="38.5" cy="72.5" r="2.5"/><circle class="dot d8" cx="46.5" cy="72.5" r="2.5"/><circle class="dot d9" cx="54.5" cy="72.5" r="2.5"/><circle class="dot d10" cx="62.5" cy="72.5" r="2.5"/><circle class="dot d11" cx="70.5" cy="72.5" r="2.5"/><circle class="dot d13" cx="86.5" cy="72.5" r="2.5"/><circle class="dot d14" cx="94.5" cy="72.5" r="2.5"/><circle class="dot d15" cx="102.5" cy="72.5" r="2.5"/><circle class="dot d16" cx="110.5" cy="72.5" r="2.5"/><circle class="dot d17" cx="118.5" cy="72.5" r="2.5"/><circle class="dot d18" cx="126.5" cy="72.5" r="2.5"/><circle class="dot d19" cx="134.5" cy="72.5" r="2.5"/><circle class="dot d6" cx="22.5" cy="80.5" r="2.5"/><circle class="dot d7" cx="30.5" cy="80.5" r="2.5"/><circle class="dot d11" cx="62.5" cy="80.5" r="2.5"/><circle class="dot d12" cx="70.5" cy="80.5" r="2.5"/><circle class="dot d14" cx="86.5" cy="80.5" r="2.5"/><circle class="dot d15" cx="94.5" cy="80.5" r="2.5"/><circle class="dot d19" cx="126.5" cy="80.5" r="2.5"/><circle class="dot d20" cx="134.5" cy="80.5" r="2.5"/><circle class="dot d7" cx="22.5" cy="88.5" r="2.5"/><circle class="dot d8" cx="30.5" cy="88.5" r="2.5"/><circle class="dot d12" cx="62.5" cy="88.5" r="2.5"/><circle class="dot d13" cx="70.5" cy="88.5" r="2.5"/><circle class="dot d15" cx="86.5" cy="88.5" r="2.5"/><circle class="dot d16" cx="94.5" cy="88.5" r="2.5"/><circle class="dot d20" cx="126.5" cy="88.5" r="2.5"/><circle class="dot d21" cx="134.5" cy="88.5" r="2.5"/><circle class="dot d8" cx="22.5" cy="96.5" r="2.5"/><circle class="dot d9" cx="30.5" cy="96.5" r="2.5"/><circle class="dot d13" cx="62.5" cy="96.5" r="2.5"/><circle class="dot d14" cx="70.5" cy="96.5" r="2.5"/><circle class="dot d16" cx="86.5" cy="96.5" r="2.5"/><circle class="dot d17" cx="94.5" cy="96.5" r="2.5"/><circle class="dot d21" cx="126.5" cy="96.5" r="2.5"/><circle class="dot d22" cx="134.5" cy="96.5" r="2.5"/><circle class="dot d9" cx="22.5" cy="104.5" r="2.5"/><circle class="dot d10" cx="30.5" cy="104.5" r="2.5"/><circle class="dot d14" cx="62.5" cy="104.5" r="2.5"/><circle class="dot d15" cx="70.5" cy="104.5" r="2.5"/><circle class="dot d17" cx="86.5" cy="104.5" r="2.5"/><circle class="dot d18" cx="94.5" cy="104.5" r="2.5"/><circle class="dot d22" cx="126.5" cy="104.5" r="2.5"/><circle class="dot d23" cx="134.5" cy="104.5" r="2.5"/><circle class="dot d10" cx="22.5" cy="112.5" r="2.5"/><circle class="dot d11" cx="30.5" cy="112.5" r="2.5"/><circle class="dot d15" cx="62.5" cy="112.5" r="2.5"/><circle class="dot d16" cx="70.5" cy="112.5" r="2.5"/><circle class="dot d18" cx="86.5" cy="112.5" r="2.5"/><circle class="dot d19" cx="94.5" cy="112.5" r="2.5"/><circle class="dot d23" cx="126.5" cy="112.5" r="2.5"/><circle class="dot d24" cx="134.5" cy="112.5" r="2.5"/></g><g clip-path="url(#coff)"><rect class="scan" x="-18" y="28" width="34" height="89" fill="url(#s2)"/></g><g clip-path="url(#con)"><rect class="scan" x="-18" y="28" width="34" height="89" fill="url(#s1)"/></g>
</svg>
